<?xml version="1.0" encoding="UTF-8"?>
<svg version="1.1" xmlns="http://www.w3.org/2000/svg" width="1024" height="1024">

<path d="M0 0 C1.3463855 -0.0049926 1.3463855 -0.0049926 2.7199707 -0.01008606 C4.60904433 -0.01511346 6.49812672 -0.01749569 8.38720703 -0.01733398 C11.21532615 -0.01950464 14.04304415 -0.03766208 16.87109375 -0.05664062 C32.25192022 -0.10550068 47.27728697 0.90511486 62.3125 4.35546875 C63.26165283 4.56905029 64.21080566 4.78263184 65.1887207 5.00268555 C89.07518216 10.50294738 111.65984933 17.77063593 133.38378906 29.19433594 C135.19098706 30.13718073 137.01061764 31.04987228 138.8359375 31.95703125 C153.92853001 39.5772303 168.40175673 49.18656424 181.25 60.16796875 C182.20003906 60.93625 183.15007812 61.70453125 184.12890625 62.49609375 C197.43362731 73.32952305 209.81640939 85.53817256 220.25 99.16796875 C221.23825473 100.40600963 222.22794972 101.64290162 223.21875 102.87890625 C231.8393309 113.74929611 239.2409873 125.20380387 246.25 137.16796875 C246.64026367 137.82974121 247.03052734 138.49151367 247.43261719 139.17333984 C259.39442254 159.70685364 267.24291211 182.56008567 272.9375 205.54296875 C273.12803955 206.29537842 273.3185791 207.04778809 273.51489258 207.82299805 C277.67179393 225.42496225 278.76417168 242.95345417 278.625 260.98046875 C278.62101196 262.03179993 278.61702393 263.0831311 278.61291504 264.1663208 C278.54541829 279.3418406 278.17379633 294.23064565 275.25 309.16796875 C275.10014648 309.96605957 274.95029297 310.76415039 274.79589844 311.58642578 C273.79032951 316.82883448 272.59718681 322.00335096 271.25 327.16796875 C271.07243164 327.85342773 270.89486328 328.53888672 270.71191406 329.24511719 C261.19568528 365.22358643 243.85167242 399.26707443 220.06640625 427.89453125 C217.66524336 430.8998577 215.46820935 434.02518844 213.25 437.16796875 C216.04014795 439.98287569 218.83360024 442.79445702 221.63012695 445.60302734 C223.04749 447.02787944 224.46223639 448.45533288 225.87695312 449.8828125 C226.76962891 450.77871094 227.66230469 451.67460938 228.58203125 452.59765625 C229.40421143 453.42507324 230.2263916 454.25249023 231.07348633 455.10498047 C233.27027402 457.30411613 233.27027402 457.30411613 236.25 459.16796875 C238.80279433 458.96456619 238.80279433 458.96456619 241.625 458.29296875 C256.20107789 455.62361473 267.73428412 457.50435923 280.40403175 465.19068909 C285.86546685 468.98510407 290.42866934 473.76466193 295.10620117 478.45898438 C296.25807177 479.60050227 297.41075967 480.74119594 298.56419373 481.88113403 C301.67275796 484.95884078 304.76851219 488.04912377 307.86105132 491.14292336 C310.45433136 493.73536841 313.05330667 496.32206866 315.65208131 498.90900373 C321.78915539 505.01877129 327.91522376 511.13942427 334.03491211 517.26660156 C340.3235144 523.56243961 346.63215356 529.83767989 352.95076007 536.10339212 C358.39722729 541.50592451 363.82991108 546.92206012 369.25219518 552.34886312 C372.48102799 555.58000558 375.71481828 558.805737 378.96242332 562.01802063 C382.01938608 565.04276606 385.0586416 568.08429681 388.08580971 571.13885117 C389.19106227 572.24851711 390.30215576 573.35240527 391.41984558 574.449543 C402.23699378 585.08135171 409.94163458 597.13731242 410.625 612.73046875 C410.31334599 627.26821183 404.88904411 640.4936287 394.9375 651.04296875 C383.617665 661.65171055 370.74891484 665.57010876 355.43359375 665.37890625 C343.21719477 664.56947613 333.3056955 659.86809862 324.96875 650.9609375 C323.11402602 649.02612317 321.1566302 647.29032234 319.125 645.54296875 C316.02520712 642.85929593 313.01839164 640.1958971 310.25 637.16796875 C310.25 636.50796875 310.25 635.84796875 310.25 635.16796875 C309.66734847 634.91049551 309.08469694 634.65302227 308.48438931 634.38774681 C306.05308465 633.06047046 304.45139626 631.61285813 302.49977112 629.65151978 C301.40431473 628.55801964 301.40431473 628.55801964 300.28672791 627.44242859 C299.49544998 626.64238907 298.70417206 625.84234955 297.88891602 625.01806641 C297.04780273 624.17563889 296.20668945 623.33321136 295.34008789 622.46525574 C293.03691395 620.15670444 290.73821 617.84380802 288.44125104 615.5290761 C286.03315677 613.10473057 283.61897533 610.68646352 281.20530701 608.26766968 C276.63184642 603.68283242 272.06308217 599.093348 267.49634737 594.50181234 C259.32423253 586.28538665 251.14657989 578.07448211 242.96362823 569.86884916 C240.56342055 567.46162742 238.16451368 565.05313545 235.76843452 562.64180374 C233.0945876 559.95128431 230.4177995 557.26372191 227.74047852 554.57666016 C226.95122482 553.7806691 226.16197113 552.98467804 225.34880066 552.16456604 C221.78876701 548.5971724 218.24032429 545.25940839 214.25 542.16796875 C206.6743544 533.33676922 201.09381063 523.36374017 201.125 511.54296875 C201.12242187 510.58132813 201.11984375 509.6196875 201.1171875 508.62890625 C201.25 505.16796875 201.25 505.16796875 201.7824707 502.86303711 C202.59173892 498.86933134 202.98783686 496.32940516 200.74121094 492.79296875 C198.49945686 490.36844614 196.16027962 488.16858456 193.6875 485.98046875 C192.05915546 484.4683423 190.43281598 482.9540535 188.80859375 481.4375 C188.02983887 480.72287598 187.25108398 480.00825195 186.44873047 479.27197266 C183.46497478 476.41676429 180.86181791 473.36395339 178.25 470.16796875 C174.1958009 471.56797995 171.33915375 473.49664575 168 476.16796875 C149.75868544 490.28804402 126.83054142 502.47055394 104.75 509.23046875 C95.37958577 512.25236385 89.96560245 517.60156291 85.25 526.16796875 C83.01312585 532.8785912 82.85902311 543.31803865 85.8125 549.79296875 C89.99399808 556.4393499 95.76760259 560.03334437 103.25 562.16796875 C106.26733958 562.55316722 109.23502262 562.55634605 112.27368164 562.52099609 C113.13833038 562.52315628 114.00297913 562.52531647 114.89382935 562.52754211 C116.75928352 562.53061385 118.62475819 562.52706856 120.49019051 562.51752853 C123.4566067 562.50368955 126.42236123 562.51028885 129.38877869 562.52236938 C137.81871992 562.55317804 146.24850448 562.54856907 154.6784668 562.52832031 C159.84909518 562.51731647 165.01922717 562.53077795 170.18978691 562.55821609 C172.1451023 562.56360746 174.10046887 562.55972053 176.05574226 562.54581833 C196.96518886 562.39894512 214.53130418 567.5776601 230.25 582.16796875 C243.45352867 595.687604 249.80184756 613.45865507 249.59765625 632.10205078 C249.05825764 649.95543499 242.2016108 665.81046853 229.25 678.16796875 C228.72277344 678.71453125 228.19554687 679.26109375 227.65234375 679.82421875 C213.66382349 693.27609501 194.0039864 696.82198793 175.38867188 696.62207031 C173.87894216 696.62093803 172.36921026 696.62158309 170.85948181 696.62384033 C166.81696955 696.6249736 162.77494595 696.60169345 158.73254585 696.5735445 C154.48721006 696.54829545 150.24185926 696.54617054 145.99645996 696.54144287 C137.98225303 696.52908137 129.96826811 696.49635369 121.95415831 696.45604491 C112.81977248 696.41111282 103.68537526 696.38928662 94.55090618 696.36926317 C75.78378657 696.32761374 57.01697071 696.25434838 38.25 696.16796875 C38.25 681.64796875 38.25 667.12796875 38.25 652.16796875 C42.81263672 652.16385986 47.37527344 652.15975098 52.07617188 652.15551758 C67.14771263 652.1383236 82.21908417 652.09407943 97.29051971 652.03587818 C106.42873291 652.0012501 115.56679559 651.97587552 124.70507812 651.97241211 C132.67160362 651.96936918 140.63786092 651.94883453 148.60428286 651.90744418 C152.82109058 651.88614223 157.0375173 651.87349903 161.25437927 651.88181496 C165.22726323 651.88937305 169.19937632 651.87346199 173.17211914 651.8399086 C174.62648752 651.83169634 176.08093286 651.83190063 177.53529358 651.84137154 C185.64584416 651.88893941 192.01765794 651.78215497 198.25 646.16796875 C204.0471314 640.06572517 204.66280865 634.4238576 204.48828125 626.2578125 C203.95781411 619.37913211 200.46382735 616.09264221 195.578125 611.68359375 C190.08515787 608.10763529 184.14652275 607.87795938 177.81469727 607.91259766 C177.0005687 607.9089772 176.18644012 607.90535675 175.34764099 607.90162659 C173.58913348 607.89476413 171.83060481 607.89222121 170.07208443 607.89357376 C167.2735749 607.89454613 164.47544209 607.88150961 161.67698669 607.86459351 C153.72324592 607.81856054 145.76954336 607.79376343 137.81567383 607.78710938 C132.93798059 607.78204681 128.06067866 607.7575545 123.18311882 607.72178268 C121.34029445 607.71208859 119.49741551 607.70959487 117.65457344 607.71495438 C95.00788014 607.77768458 76.49043123 602.34679782 59.25 587.16796875 C46.69413712 574.67562626 39.06614431 555.74030747 39 538.16796875 C39.05520727 515.91463826 47.90806011 498.0200841 62.9375 481.98046875 C73.54714469 471.86915586 85.71929207 466.45887 99.00561523 460.67797852 C122.14415019 450.59629095 142.44001249 438.03724327 161.25 421.16796875 C162.72819348 419.91681806 164.20719623 418.66662193 165.6875 417.41796875 C169.59319611 413.97468063 172.91462904 410.1566598 176.25 406.16796875 C176.98863281 405.3171875 177.72726562 404.46640625 178.48828125 403.58984375 C189.69502638 390.50637097 199.30287988 376.45324042 207.25 361.16796875 C207.78898926 360.153396 208.32797852 359.13882324 208.88330078 358.09350586 C213.27354685 349.6255821 216.56629314 341.20089431 219.5 332.10546875 C219.92364923 330.83370761 220.34812788 329.56222245 220.7734375 328.29101562 C223.38772398 320.32895131 225.53241028 312.36894231 227.25 304.16796875 C227.41838379 303.40154053 227.58676758 302.6351123 227.76025391 301.84545898 C233.05555472 276.52049139 232.6356336 246.42594572 227.25 221.16796875 C226.98037122 219.76434165 226.71083933 218.36069593 226.44140625 216.95703125 C220.00841958 185.37960216 205.27566164 155.29291355 185.25 130.16796875 C184.45464844 129.16765625 183.65929687 128.16734375 182.83984375 127.13671875 C171.55416505 113.24798645 158.85074936 100.53804276 144.25 90.16796875 C143.43789063 89.56082031 142.62578125 88.95367187 141.7890625 88.328125 C129.62189749 79.41496924 115.82361421 72.65353376 102.25 66.16796875 C101.16976563 65.64460938 100.08953125 65.12125 98.9765625 64.58203125 C87.84589655 59.48833666 76.04288302 56.34640566 64.25 53.16796875 C63.25564941 52.89927979 62.26129883 52.63059082 61.23681641 52.35375977 C8.04340529 38.47665648 -52.56477884 48.57131944 -99.75 76.16796875 C-125.5302576 91.64460864 -148.09940017 111.8313217 -165.75 136.16796875 C-166.34264648 136.97596924 -166.34264648 136.97596924 -166.94726562 137.80029297 C-178.78109198 154.11296113 -188.78054714 172.90597367 -194.75 192.16796875 C-195.03037109 193.05323242 -195.31074219 193.93849609 -195.59960938 194.85058594 C-202.53069715 217.05519016 -206.09902921 238.68485698 -206.125 261.91796875 C-206.12812698 263.05415146 -206.12812698 263.05415146 -206.13131714 264.21328735 C-206.12824734 274.03170825 -205.41858435 283.46903909 -203.75 293.16796875 C-203.6041748 294.06499512 -203.45834961 294.96202148 -203.30810547 295.88623047 C-196.28480498 338.01781901 -178.76988551 375.35136671 -149.828125 406.84375 C-148.40253875 408.43815567 -147.03043284 410.08153012 -145.70703125 411.76171875 C-143.97072215 413.89658183 -142.28590735 415.592444 -140.1875 417.35546875 C-137.86423708 419.32981673 -135.59323959 421.31696874 -133.3828125 423.41796875 C-88.45554322 466.02376819 -28.86808134 480.46061688 31.25 479.16796875 C29.67471298 483.26120699 27.72287686 486.79372718 25.4375 490.54296875 C18.93626727 501.60492144 15.84442547 513.65988497 13.25 526.16796875 C-27.32397688 527.10070385 -65.09548595 518.75077834 -101.75 501.16796875 C-102.55518066 500.78592285 -103.36036133 500.40387695 -104.18994141 500.01025391 C-124.68526127 490.15469678 -143.57764935 477.02375229 -160.75 462.16796875 C-161.595625 461.45125 -162.44125 460.73453125 -163.3125 459.99609375 C-176.72762119 448.30318406 -189.27917656 435.56797183 -199.75 421.16796875 C-200.5949248 420.02985341 -201.43997793 418.89183333 -202.28515625 417.75390625 C-243.81814653 361.25400056 -261.6833983 291.17016843 -251.35882568 221.77120972 C-249.2614822 208.25677523 -246.00218009 195.1696404 -241.75 182.16796875 C-241.36908203 180.9756665 -241.36908203 180.9756665 -240.98046875 179.75927734 C-229.61376107 144.48145398 -210.06846222 112.1625661 -184.75 85.16796875 C-183.51421458 83.75707204 -182.28445159 82.34086349 -181.0625 80.91796875 C-175.41980248 74.46356069 -169.38019932 68.9200165 -162.69140625 63.55078125 C-160.73894799 61.96910856 -158.80866854 60.35963748 -156.90234375 58.72265625 C-144.85809981 48.38049254 -131.48194862 40.07689899 -117.75 32.16796875 C-116.61691406 31.51183594 -115.48382813 30.85570312 -114.31640625 30.1796875 C-99.2196013 21.6773777 -82.54139515 14.45888536 -65.75 10.16796875 C-65.03440918 9.97928223 -64.31881836 9.7905957 -63.58154297 9.59619141 C-42.92082558 4.19015967 -21.4170454 0.02862895 0 0 Z " fill="#1B4671" transform="translate(456.75,149.83203125)"/>
<path d="M0 0 C1.9985237 2.66469827 3.56587521 4.86496471 5.09375 7.73046875 C5.67116943 8.79865845 5.67116943 8.79865845 6.26025391 9.88842773 C6.66937012 10.64712158 7.07848633 11.40581543 7.5 12.1875 C17.52545294 30.48926053 29.33638125 47.24846784 43 63 C43.52988525 63.61963623 44.05977051 64.23927246 44.60571289 64.87768555 C48.97197588 69.94399297 53.57107613 74.72244179 58.3125 79.4375 C59.02728516 80.15615234 59.74207031 80.87480469 60.47851562 81.61523438 C61.16236328 82.29779297 61.84621094 82.98035156 62.55078125 83.68359375 C63.16606689 84.29775146 63.78135254 84.91190918 64.4152832 85.54467773 C65.95375267 87.09170925 65.95375267 87.09170925 68 88 C68 88.66 68 89.32 68 90 C68.57202148 90.26240479 69.14404297 90.52480957 69.73339844 90.79516602 C79.23515925 95.84591888 83.97129909 104.36086681 88.75 113.5625 C89.44245516 114.86144302 90.13698766 116.15928057 90.83349609 117.45605469 C92.23560641 120.06841015 93.63047681 122.68442222 95.02050781 125.30322266 C97.79329183 130.5060927 100.70411807 135.62920189 103.625 140.75 C104.67239021 142.59606195 105.71926319 144.44241745 106.765625 146.2890625 C107.28833984 147.21106445 107.81105469 148.13306641 108.34960938 149.08300781 C123.84796859 176.47566993 123.84796859 176.47566993 131 190 C131.66 190 132.32 190 133 190 C133.39771606 189.2718811 133.39771606 189.2718811 133.8034668 188.52905273 C136.62987084 183.35985906 139.47215409 178.19961479 142.32226562 173.04345703 C143.46317247 170.97382014 144.59973418 168.90178327 145.73242188 166.82763672 C147.45713039 163.67095868 149.19603939 160.52246065 150.9375 157.375 C151.48043701 156.3739624 152.02337402 155.3729248 152.58276367 154.34155273 C153.1007251 153.41157471 153.61868652 152.48159668 154.15234375 151.5234375 C154.60601318 150.69763184 155.05968262 149.87182617 155.52709961 149.02099609 C157.19233673 146.73609093 158.31814155 145.86520939 161 145 C163.51065616 145.77319851 165.6909899 146.60701248 168.0625 147.6875 C173.48151987 150.01340901 178.76825748 151.90619124 184.5 153.34765625 C187.00486657 154.00126987 189.4274209 154.78364469 191.875 155.625 C194.89646158 156.66108467 197.83711187 157.48985675 201 158 C199.39221253 162.30392337 197.34410716 166.32717004 195.1875 170.375 C194.79643066 171.11121582 194.40536133 171.84743164 194.00244141 172.60595703 C190.19157749 179.72869573 186.21756644 186.75680699 182.22363281 193.77807617 C178.55248713 200.23534033 174.93014107 206.71683567 171.35498047 213.2277832 C170.07929696 215.52950347 168.78534382 217.82119482 167.47314453 220.10229492 C164.45463907 225.36692582 161.72778045 230.46102668 159.61328125 236.15625 C155.31085914 246.77234477 155.31085914 246.77234477 150 250 C144.01145919 251.48671079 138.21424342 251.77511073 132.0625 251.75 C131.26662476 251.75115814 130.47074951 251.75231628 129.65075684 251.75350952 C117.09152778 251.60451759 117.09152778 251.60451759 113.06762695 248.51757812 C111.72055566 246.41135806 110.89378468 244.33434983 110 242 C108.933167 240.11030828 107.83828526 238.23630045 106.72265625 236.375 C105.50126222 234.25077103 104.28127944 232.12573017 103.0625 230 C101.72061658 227.66503725 100.37835554 225.33029906 99.03515625 222.99609375 C98.69650543 222.40743027 98.35785461 221.81876678 98.00894165 221.21226501 C95.26710973 216.4515626 92.49142551 211.71130092 89.70922852 206.97412109 C82.73140452 195.08760075 76.00020684 183.07721656 69.33203125 171.015625 C65.62080916 164.30390611 61.82552657 157.64763633 58 151 C52.06 140.605 52.06 140.605 46 130 C45.67 189.73 45.34 249.46 45 311 C30.15 311 15.3 311 0 311 C0 208.37 0 105.74 0 0 Z " fill="#1A436D" transform="translate(204,535)"/>
<path d="M0 0 C1.23503769 -0.01073296 1.23503769 -0.01073296 2.49502563 -0.02168274 C5.20876026 -0.03855207 7.92083889 -0.01918012 10.63452148 0.00219727 C12.52351518 0.00136848 14.41250881 -0.00109126 16.30149841 -0.00511169 C20.25672156 -0.00796837 24.211378 0.00672018 28.16650391 0.03417969 C33.23658335 0.06828564 38.30565107 0.06223531 43.37577915 0.04351711 C47.27488135 0.03295044 51.173748 0.04188151 55.07282829 0.05690193 C56.94233437 0.06208508 58.81186503 0.06160033 60.68136787 0.05535698 C63.29332551 0.04990782 65.90383265 0.07026833 68.515625 0.09765625 C69.28820145 0.09113037 70.06077789 0.08460449 70.85676575 0.07788086 C74.1426341 0.13648254 76.35241821 0.42108598 79.17185974 2.15908813 C81.30076884 5.61853072 81.25250671 8.7754205 81.21069336 12.71679688 C81.21770264 13.52864944 81.22471191 14.34050201 81.23193359 15.17695618 C81.24952771 17.85863529 81.23788511 20.53925755 81.22436523 23.22094727 C81.22706001 25.086555 81.23094231 26.95216136 81.23596191 28.81776428 C81.24185909 32.72760389 81.23328796 36.6370779 81.21459961 40.546875 C81.19182569 45.55520501 81.20492178 50.56267688 81.22888947 55.5709753 C81.24335503 59.42377671 81.23873771 63.27637525 81.2283783 67.12918282 C81.22571228 68.97554183 81.22897636 70.82191934 81.23829651 72.66825676 C81.24847291 75.25133791 81.23294594 77.83303721 81.21069336 80.41601562 C81.21879028 81.1772171 81.22688721 81.93841858 81.23522949 82.72268677 C81.18044476 86.1609425 80.74425374 88.53116294 79.17185974 91.60411072 C75.7513515 94.40123061 72.74850641 94.33352913 68.515625 94.27807617 C67.69401886 94.28683777 66.87241272 94.29559937 66.02590942 94.30462646 C63.31157521 94.32662231 60.59887209 94.31206646 57.88452148 94.29516602 C55.99649239 94.29853444 54.1084654 94.30338728 52.22044373 94.30966187 C48.26345169 94.3170337 44.30702407 94.30631897 40.35009766 94.28295898 C35.28107224 94.25449045 30.21337153 94.27086088 25.14439487 94.3008213 C21.24523466 94.31890261 17.34638767 94.31313211 13.44721794 94.30018234 C11.57852967 94.29684961 9.70981285 94.30093074 7.84115791 94.31258011 C5.22667453 94.32530059 2.61432471 94.30589596 0 94.27807617 C-0.77055222 94.28819733 -1.54110443 94.29831848 -2.33500671 94.30874634 C-6.09552159 94.2347267 -8.15864368 93.73231433 -11.28562927 91.59738159 C-13.82873834 87.86526129 -14.01277404 84.89116149 -13.95385742 80.52368164 C-13.96261902 79.72143661 -13.97138062 78.91919159 -13.98040771 78.09263611 C-14.00236101 75.44865354 -13.98786443 72.80635219 -13.97094727 70.16235352 C-13.97431659 68.32059407 -13.97917019 66.4788368 -13.98544312 64.63708496 C-13.9928089 60.7802205 -13.98211859 56.92393567 -13.95874023 53.06713867 C-13.93025242 48.12704583 -13.946658 43.18831115 -13.97660255 38.24826813 C-13.99468361 34.44604283 -13.98891384 30.64413874 -13.97596359 26.84190369 C-13.9726318 25.02066385 -13.97670869 23.1993947 -13.98836136 21.37818909 C-14.00108377 18.8308506 -13.98167601 16.28570108 -13.95385742 13.73852539 C-13.96397858 12.9882457 -13.97409973 12.237966 -13.98452759 11.46495056 C-13.90966563 7.75866862 -13.38584226 5.74701572 -11.28562927 2.66383362 C-7.49423452 0.07654148 -4.43684542 -0.06732377 0 0 Z " fill="#D8272C" transform="translate(322.306884765625,373.368896484375)"/>
<path d="M0 0 C0.82321243 -0.00700928 1.64642487 -0.01401855 2.49458313 -0.02124023 C5.21352959 -0.03883378 7.93143373 -0.02719298 10.65039062 -0.01367188 C12.54081421 -0.01636641 14.43123644 -0.0202485 16.32165527 -0.02526855 C20.28276775 -0.03116544 24.24351933 -0.02259455 28.20458984 -0.00390625 C33.28251624 0.01888343 38.359597 0.00576136 43.43749237 -0.01819611 C47.34086481 -0.03264896 51.24403669 -0.02805045 55.14741516 -0.01768494 C57.01972046 -0.01501623 58.89204395 -0.01829246 60.764328 -0.02760315 C63.38113648 -0.03776038 65.99657485 -0.02228006 68.61328125 0 C69.38742874 -0.00809692 70.16157623 -0.01619385 70.95918274 -0.02453613 C74.24579037 0.02731661 76.46213767 0.30637207 79.28637695 2.0378418 C81.426969 5.52940972 81.36578652 8.73663995 81.32421875 12.7109375 C81.33122803 13.53414993 81.3382373 14.35736237 81.34545898 15.20552063 C81.36305253 17.92446709 81.35141173 20.64237123 81.33789062 23.36132812 C81.34058516 25.25175171 81.34446725 27.14217394 81.3494873 29.03259277 C81.35538419 32.99370525 81.3468133 36.95445683 81.328125 40.91552734 C81.30533532 45.99345374 81.31845739 51.0705345 81.34241486 56.14842987 C81.35686771 60.05180231 81.3522692 63.95497419 81.34190369 67.85835266 C81.33923498 69.73065796 81.34251121 71.60298145 81.3518219 73.4752655 C81.36197913 76.09207398 81.34649881 78.70751235 81.32421875 81.32421875 C81.33231567 82.09836624 81.3404126 82.87251373 81.34875488 83.67012024 C81.29690214 86.95672787 81.01784668 89.17307517 79.28637695 91.99731445 C75.79480903 94.1379065 72.5875788 94.07672402 68.61328125 94.03515625 C67.79006882 94.04216553 66.96685638 94.0491748 66.11869812 94.05639648 C63.39975166 94.07399003 60.68184752 94.06234923 57.96289062 94.04882812 C56.07246704 94.05152266 54.18204481 94.05540475 52.29162598 94.0604248 C48.3305135 94.06632169 44.36976192 94.0577508 40.40869141 94.0390625 C35.33076501 94.01627282 30.25368425 94.02939489 25.17578888 94.05335236 C21.27241644 94.06780521 17.36924456 94.0632067 13.46586609 94.05284119 C11.59356079 94.05017248 9.7212373 94.05344871 7.84895325 94.0627594 C5.23214477 94.07291663 2.6167064 94.05743631 0 94.03515625 C-1.16122124 94.04730164 -1.16122124 94.04730164 -2.34590149 94.05969238 C-5.63250912 94.00783964 -7.84885642 93.72878418 -10.6730957 91.99731445 C-12.81368775 88.50574653 -12.75250527 85.2985163 -12.7109375 81.32421875 C-12.71794678 80.50100632 -12.72495605 79.67779388 -12.73217773 78.82963562 C-12.74977128 76.11068916 -12.73813048 73.39278502 -12.72460938 70.67382812 C-12.72730391 68.78340454 -12.731186 66.89298231 -12.73620605 65.00256348 C-12.74210294 61.041451 -12.73353205 57.08069942 -12.71484375 53.11962891 C-12.69205407 48.04170251 -12.70517614 42.96462175 -12.72913361 37.88672638 C-12.74358646 33.98335394 -12.73898795 30.08018206 -12.72862244 26.17680359 C-12.72595373 24.30449829 -12.72922996 22.4321748 -12.73854065 20.55989075 C-12.74869788 17.94308227 -12.73321756 15.3276439 -12.7109375 12.7109375 C-12.71903442 11.93679001 -12.72713135 11.16264252 -12.73547363 10.36503601 C-12.68362089 7.07842838 -12.40456543 4.86208108 -10.6730957 2.0378418 C-7.18152778 -0.10275025 -3.97429755 -0.04156777 0 0 Z " fill="#D7262B" transform="translate(435.193359375,260.482421875)"/>
<path d="M0 0 C0.82321243 -0.00861557 1.64642487 -0.01723114 2.49458313 -0.02610779 C5.21350619 -0.04879567 7.93140099 -0.04202438 10.65039062 -0.03295898 C12.5408153 -0.03819309 14.43123735 -0.04446878 16.32165527 -0.05174255 C20.28275852 -0.06215177 24.24350263 -0.05757746 28.20458984 -0.04296875 C33.282643 -0.02577432 38.3595654 -0.0492814 43.43749237 -0.08445835 C47.34087635 -0.10640962 51.24398876 -0.1049965 55.14741516 -0.09669304 C57.01973206 -0.09587238 58.89206868 -0.10275761 60.764328 -0.11746407 C63.38135486 -0.13486982 65.996337 -0.12040254 68.61328125 -0.09765625 C69.38742874 -0.10934845 70.16157623 -0.12104065 70.95918274 -0.13308716 C74.56246123 -0.06930985 76.46571592 0.25490403 79.28637695 2.55944824 C81.21825887 6.33867092 81.36834909 9.59978931 81.32421875 13.74853516 C81.33122803 14.56214005 81.3382373 15.37574493 81.34545898 16.21400452 C81.36302017 18.8950545 81.35142438 21.57504339 81.33789062 24.25610352 C81.34058583 26.12267763 81.34446848 27.98925038 81.3494873 29.8558197 C81.35537957 33.76387934 81.34682719 37.67157282 81.328125 41.57958984 C81.30531975 46.58911003 81.31847012 51.59777374 81.34241486 56.60726261 C81.35686669 60.46002155 81.35226995 64.31257728 81.34190369 68.16534233 C81.33923552 70.01252786 81.34250933 71.85973185 81.3518219 73.70689583 C81.36197925 76.28767941 81.34649952 78.86707384 81.32421875 81.44775391 C81.33231567 82.21097961 81.3404126 82.97420532 81.34875488 83.76055908 C81.29649323 87.02740232 81.0093705 89.20512061 79.27964783 92.00645447 C75.82039072 94.14242103 72.66519815 94.09286924 68.72094727 94.05102539 C67.9090947 94.05803467 67.09724213 94.06504395 66.26078796 94.07226562 C63.57910885 94.08985974 60.8984866 94.07821714 58.21679688 94.06469727 C56.35118914 94.06739204 54.48558278 94.07127435 52.61997986 94.07629395 C48.71014025 94.08219112 44.80066624 94.07361999 40.89086914 94.05493164 C35.88253913 94.03215772 30.87506726 94.04525381 25.86676884 94.0692215 C22.01396743 94.08368706 18.16136889 94.07906974 14.30856133 94.06871033 C12.46220231 94.06604432 10.6158248 94.06930839 8.76948738 94.07862854 C6.18640623 94.08880495 3.60470694 94.07327798 1.02172852 94.05102539 C-0.1200737 94.06317078 -0.1200737 94.06317078 -1.28494263 94.07556152 C-4.72287066 94.02078201 -7.09412505 93.58417436 -10.1673584 92.01318359 C-12.96689034 88.58667929 -12.88846837 85.5779286 -12.82446289 81.34008789 C-12.83161819 80.51687546 -12.8387735 79.69366302 -12.84614563 78.84550476 C-12.86304441 76.12633648 -12.84362409 73.4088142 -12.82226562 70.68969727 C-12.82309422 68.79927433 -12.82555324 66.90885146 -12.82957458 65.01843262 C-12.83243339 61.05723372 -12.81772344 57.0966 -12.7902832 53.13549805 C-12.75620024 48.05754309 -12.76221782 42.98059885 -12.78094578 37.90259552 C-12.79151355 33.99920221 -12.78257998 30.09604416 -12.76756096 26.19267273 C-12.76237705 24.32037555 -12.76286349 22.44805383 -12.76910591 20.57575989 C-12.77455547 17.95890464 -12.75419238 15.34349695 -12.72680664 12.72680664 C-12.73333252 11.95265915 -12.7398584 11.17851166 -12.74658203 10.38090515 C-12.68811464 7.09592626 -12.40399711 4.87666189 -10.67210388 2.05470276 C-7.18280845 -0.08674822 -3.97353042 -0.03349591 0 0 Z " fill="#39A045" transform="translate(435.193359375,486.466552734375)"/>
<path d="M0 0 C0.82321243 -0.00861557 1.64642487 -0.01723114 2.49458313 -0.02610779 C5.21350619 -0.04879567 7.93140099 -0.04202438 10.65039062 -0.03295898 C12.5408153 -0.03819309 14.43123735 -0.04446878 16.32165527 -0.05174255 C20.28275852 -0.06215177 24.24350263 -0.05757746 28.20458984 -0.04296875 C33.282643 -0.02577432 38.3595654 -0.0492814 43.43749237 -0.08445835 C47.34087635 -0.10640962 51.24398876 -0.1049965 55.14741516 -0.09669304 C57.01973206 -0.09587238 58.89206868 -0.10275761 60.764328 -0.11746407 C63.38135486 -0.13486982 65.996337 -0.12040254 68.61328125 -0.09765625 C69.38742874 -0.10934845 70.16157623 -0.12104065 70.95918274 -0.13308716 C74.56715458 -0.06922678 76.46551365 0.25381307 79.28637695 2.56617737 C81.20567497 6.31228756 81.3686179 9.52674107 81.32421875 13.64086914 C81.33122803 14.44311417 81.3382373 15.24535919 81.34545898 16.07191467 C81.3630203 18.71569749 81.3514233 21.35840414 81.33789062 24.00219727 C81.34058609 25.84395553 81.34446896 27.68571242 81.3494873 29.52746582 C81.35537981 33.38425264 81.34682743 37.24066847 81.328125 41.09741211 C81.30533553 46.03733602 81.31845994 50.97639063 81.34241486 55.91628265 C81.35687956 59.71847058 81.35226378 63.52045293 81.34190369 67.32264709 C81.33923826 69.14388634 81.34249971 70.96514435 81.3518219 72.78636169 C81.3619987 75.33341806 81.34647167 77.8790732 81.32421875 80.42602539 C81.33231567 81.17630508 81.3404126 81.92658478 81.34875488 82.69960022 C81.2936062 86.11249104 80.84860429 88.45154205 79.28637695 91.50071716 C75.86099209 94.30862978 72.85463958 94.22860939 68.61328125 94.16455078 C67.79006882 94.17170609 66.96685638 94.17886139 66.11869812 94.18623352 C63.39952983 94.2031323 60.68200756 94.18371198 57.96289062 94.16235352 C56.07246769 94.16318211 54.18204482 94.16564113 52.29162598 94.16966248 C48.33042708 94.17252128 44.36979336 94.15781133 40.40869141 94.13037109 C35.33073645 94.09628813 30.25379221 94.10230571 25.17578888 94.12103367 C21.27239557 94.13160144 17.36923752 94.12266787 13.46586609 94.10764885 C11.59356891 94.10246494 9.72124719 94.10295138 7.84895325 94.1091938 C5.232098 94.11464336 2.61669031 94.09428027 0 94.06689453 C-0.77414749 94.07342041 -1.54829498 94.07994629 -2.34590149 94.08666992 C-5.63116099 94.02819754 -7.85062143 93.74370832 -10.6730957 92.01219177 C-12.8141436 88.52127713 -12.75250127 85.31400279 -12.7109375 81.34008789 C-12.71794678 80.51687546 -12.72495605 79.69366302 -12.73217773 78.84550476 C-12.74977128 76.1265583 -12.73813048 73.40865416 -12.72460938 70.68969727 C-12.72730391 68.79927368 -12.731186 66.90885145 -12.73620605 65.01843262 C-12.74210294 61.05732014 -12.73353205 57.09656856 -12.71484375 53.13549805 C-12.69205407 48.05757165 -12.70517614 42.98049089 -12.72913361 37.90259552 C-12.74358646 33.99922308 -12.73898795 30.0960512 -12.72862244 26.19267273 C-12.72595373 24.32036743 -12.72922996 22.44804394 -12.73854065 20.57575989 C-12.74869788 17.95895141 -12.73321756 15.34351304 -12.7109375 12.72680664 C-12.71903442 11.95265915 -12.72713135 11.17851166 -12.73547363 10.38090515 C-12.68362533 7.09457926 -12.40494183 4.87842614 -10.6730957 2.05470276 C-7.18314785 -0.08629194 -3.97391182 -0.03349913 0 0 Z " fill="#FDBF04" transform="translate(435.193359375,373.466552734375)"/>
<path d="M0 0 C0.82321243 -0.00700928 1.64642487 -0.01401855 2.49458313 -0.02124023 C5.21352959 -0.03883378 7.93143373 -0.02719298 10.65039062 -0.01367188 C12.54081421 -0.01636641 14.43123644 -0.0202485 16.32165527 -0.02526855 C20.28276775 -0.03116544 24.24351933 -0.02259455 28.20458984 -0.00390625 C33.28251624 0.01888343 38.359597 0.00576136 43.43749237 -0.01819611 C47.34086481 -0.03264896 51.24403669 -0.02805045 55.14741516 -0.01768494 C57.01972046 -0.01501623 58.89204395 -0.01829246 60.764328 -0.02760315 C63.38113648 -0.03776038 65.99657485 -0.02228006 68.61328125 0 C69.38742874 -0.00809692 70.16157623 -0.01619385 70.95918274 -0.02453613 C74.24579037 0.02731661 76.46213767 0.30637207 79.28637695 2.0378418 C81.426969 5.52940972 81.36578652 8.73663995 81.32421875 12.7109375 C81.33122803 13.53414993 81.3382373 14.35736237 81.34545898 15.20552063 C81.36305253 17.92446709 81.35141173 20.64237123 81.33789062 23.36132812 C81.34058516 25.25175171 81.34446725 27.14217394 81.3494873 29.03259277 C81.35538419 32.99370525 81.3468133 36.95445683 81.328125 40.91552734 C81.30533532 45.99345374 81.31845739 51.0705345 81.34241486 56.14842987 C81.35686771 60.05180231 81.3522692 63.95497419 81.34190369 67.85835266 C81.33923498 69.73065796 81.34251121 71.60298145 81.3518219 73.4752655 C81.36197913 76.09207398 81.34649881 78.70751235 81.32421875 81.32421875 C81.33231567 82.09836624 81.3404126 82.87251373 81.34875488 83.67012024 C81.29684076 86.96061781 81.01942933 89.17216141 79.27964783 91.99632263 C75.8210622 94.12385076 72.66185273 94.08472168 68.72094727 94.05102539 C67.9090947 94.05964096 67.09724213 94.06825653 66.26078796 94.07713318 C63.57913256 94.0998218 60.89851981 94.09304895 58.21679688 94.08398438 C56.35118804 94.08921896 54.48558186 94.09549483 52.61997986 94.10276794 C48.7101496 94.11317768 44.80068316 94.10860289 40.89086914 94.09399414 C35.88241042 94.07681159 30.87509946 94.10029177 25.86676884 94.13548374 C22.01395578 94.15745431 18.16141745 94.15601701 14.30856133 94.14771843 C12.46219054 94.1468986 10.61579965 94.15376806 8.76948738 94.16848946 C6.18618575 94.18592811 3.60494746 94.17139994 1.02172852 94.14868164 C-0.1200737 94.16621994 -0.1200737 94.16621994 -1.28494263 94.18411255 C-5.02201197 94.11730939 -7.05814547 93.60969097 -10.1673584 91.49157715 C-12.73280295 87.72572033 -12.8921283 84.70773552 -12.82446289 80.30249023 C-12.83161819 79.48888535 -12.8387735 78.67528046 -12.84614563 77.83702087 C-12.86301337 75.15574484 -12.84364411 72.47614522 -12.82226562 69.79492188 C-12.82309442 67.92834841 -12.82555422 66.06177501 -12.82957458 64.19520569 C-12.83243115 60.28705831 -12.81774384 56.37948451 -12.7902832 52.47143555 C-12.75617693 47.46188639 -12.76222776 42.45336117 -12.78094578 37.44376278 C-12.79151281 33.59098269 -12.78258107 29.73844098 -12.76756096 25.88568306 C-12.76237809 24.03850576 -12.76286222 22.19130358 -12.76910591 20.34412956 C-12.77455554 17.76329856 -12.75419325 15.18393524 -12.72680664 12.60327148 C-12.73333252 11.84004578 -12.7398584 11.07682007 -12.74658203 10.29046631 C-12.68772498 7.02919883 -12.39394091 4.84365062 -10.67210388 2.04457092 C-7.18221384 -0.10532268 -3.97681006 -0.04159405 0 0 Z " fill="#369E43" transform="translate(548.193359375,373.482421875)"/>
<path d="M0 0 C1.02859634 -0.02559494 2.05719269 -0.05118988 3.11695862 -0.07756042 C4.22941452 -0.087173 5.34187042 -0.09678558 6.48803711 -0.10668945 C8.21068031 -0.12878227 8.21068031 -0.12878227 9.96812439 -0.15132141 C12.4033237 -0.17529883 14.8386201 -0.19070155 17.27392578 -0.19824219 C20.97786753 -0.21975284 24.67759212 -0.29985652 28.38061523 -0.38208008 C30.74973409 -0.39808527 33.11887989 -0.41056592 35.48803711 -0.41918945 C36.58632339 -0.45106857 37.68460968 -0.48294769 38.81617737 -0.51579285 C47.5313955 -0.44048414 51.70366887 2.66238568 57.95288086 8.4675293 C59.00475586 9.1275293 60.05663086 9.7875293 61.14038086 10.4675293 C68.88746555 15.9765673 74.4909874 24.78504432 80.37866211 32.17456055 C80.82636963 32.7363501 81.27407715 33.29813965 81.73535156 33.87695312 C84.33976429 37.27934914 85.20273573 39.102905 85.19580078 43.33447266 C85.20041573 44.81632301 85.20041573 44.81632301 85.2051239 46.32810974 C85.19434563 47.92659508 85.19434563 47.92659508 85.18334961 49.55737305 C85.18289139 50.65344376 85.18243317 51.74951447 85.18196106 52.87879944 C85.17893854 55.19801922 85.17105228 57.51723697 85.15869141 59.83642578 C85.14047151 63.38736159 85.1381815 66.93803607 85.13842773 70.48901367 C85.13351104 72.74096905 85.12768206 74.99292266 85.12084961 77.24487305 C85.11973679 78.30850571 85.11862396 79.37213837 85.11747742 80.46800232 C85.11109756 81.45905472 85.10471771 82.45010712 85.09814453 83.47119141 C85.09433273 84.34150497 85.09052094 85.21181854 85.08659363 86.10850525 C84.95904284 88.35881668 84.58085323 90.30863394 83.95288086 92.4675293 C72.54825856 92.560161 61.14372557 92.63125969 49.73880386 92.67477798 C44.44316583 92.69566338 39.14778495 92.72399861 33.85229492 92.76928711 C28.74297301 92.81271058 23.63389862 92.83665923 18.52440643 92.84703827 C16.57391207 92.85443591 14.62343144 92.86888163 12.6730423 92.89044952 C9.94343158 92.91943702 7.21484699 92.92348726 4.48510742 92.92163086 C3.67662354 92.93601196 2.86813965 92.95039307 2.03515625 92.96520996 C-1.33127204 92.94039465 -3.64381002 92.71179739 -6.54902649 90.95222473 C-8.66145056 87.44861604 -8.59833227 84.2303119 -8.54882812 80.25830078 C-8.55423111 79.43348206 -8.55963409 78.60866333 -8.56520081 77.7588501 C-8.5776986 75.03507503 -8.56119192 72.3123547 -8.54321289 69.58862305 C-8.54336784 67.6958053 -8.54485614 65.80298724 -8.54762268 63.91017151 C-8.54900709 59.94485434 -8.53644039 55.9798987 -8.51367188 52.01464844 C-8.48526774 46.92776256 -8.48802926 41.84147657 -8.50076199 36.75454617 C-8.50771069 32.84693766 -8.49993947 28.93946826 -8.48750496 25.03187752 C-8.48298395 23.15596105 -8.48265931 21.2800297 -8.48657036 19.40411186 C-8.48947516 16.78488319 -8.47301179 14.16648687 -8.45117188 11.54736328 C-8.45567352 10.76962051 -8.46017517 9.99187775 -8.46481323 9.19056702 C-8.42417927 6.2632278 -8.38931373 4.02637606 -6.83731079 1.49176025 C-4.45828223 0.13063521 -2.74011766 0.05290485 0 0 Z " fill="#FCC005" transform="translate(544.047119140625,261.532470703125)"/>
<path d="M0 0 C1.63349396 -0.00361794 1.63349396 -0.00361794 3.29998779 -0.00730896 C5.58935203 -0.00633379 7.87874083 0.00698028 10.16796875 0.03198242 C13.67528884 0.06643979 17.18010793 0.05258505 20.6875 0.03320312 C22.91667739 0.04009788 25.14584831 0.0497669 27.375 0.0625 C28.42294739 0.05754013 29.47089478 0.05258026 30.55059814 0.04747009 C32.01296906 0.07122459 32.01296906 0.07122459 33.50488281 0.09545898 C34.78773163 0.10475685 34.78773163 0.10475685 36.09649658 0.11424255 C39.39673009 0.84466577 40.49128751 1.85209446 42.421875 4.62890625 C42.81135978 7.49464954 42.95927485 9.97444451 42.92358398 12.83813477 C42.93168846 14.07536285 42.93168846 14.07536285 42.93995667 15.33758545 C42.95245446 18.06136052 42.93594778 20.78408085 42.91796875 23.5078125 C42.9181237 25.40063024 42.919612 27.29344831 42.92237854 29.18626404 C42.92376295 33.15158121 42.91119625 37.11653685 42.88842773 41.08178711 C42.8600236 46.16867299 42.86278512 51.25495898 42.87551785 56.34188938 C42.88246655 60.24949788 42.87469533 64.15696729 42.86226082 68.06455803 C42.85773981 69.94047449 42.85741517 71.81640585 42.86132622 73.69232368 C42.86423102 76.31155235 42.84776765 78.92994868 42.82592773 81.54907227 C42.83042938 82.32681503 42.83493103 83.1045578 42.83956909 83.90586853 C42.80042416 86.72593581 42.70638613 89.06596833 41.42080688 91.6096344 C38.11275558 93.29643704 34.66371285 93.04433126 31.03491211 93.01708984 C29.75160255 93.02497528 29.75160255 93.02497528 28.44236755 93.03302002 C25.6111329 93.04623676 22.78045923 93.03747684 19.94921875 93.02734375 C17.98531486 93.02936382 16.0214117 93.03227469 14.05751038 93.03604126 C9.94085552 93.04046673 5.82439586 93.03402567 1.70776367 93.02001953 C-3.57763968 93.00291631 -8.86258642 93.01277467 -14.14797306 93.03073692 C-18.20307376 93.04155914 -22.25806556 93.03813581 -26.31316948 93.03035355 C-28.26248669 93.02834779 -30.21181368 93.0308239 -32.16111946 93.03779221 C-34.88119976 93.04538229 -37.60053227 93.03383764 -40.32055664 93.01708984 C-41.13151794 93.02316254 -41.94247925 93.02923523 -42.77801514 93.03549194 C-45.01698303 93.00985718 -45.01698303 93.00985718 -48.578125 92.62890625 C-50.68787866 89.46427576 -50.85263847 88.5475909 -50.96386719 84.90478516 C-50.99599304 83.94593414 -51.0281189 82.98708313 -51.06121826 81.99917603 C-51.15079069 77.58428373 -51.23236984 73.16998657 -51.27832031 68.75439453 C-51.31127456 66.4382281 -51.3656382 64.1222581 -51.44238281 61.80712891 C-52.17653494 39.52401591 -52.17653494 39.52401591 -45.8046875 31.84765625 C-44.10846906 30.06322064 -42.3684415 28.31891639 -40.578125 26.62890625 C-39.10620828 24.93226249 -37.64551676 23.22572067 -36.203125 21.50390625 C-31.02675362 15.88777234 -25.54213045 10.41102791 -19.578125 5.62890625 C-19.0353743 5.1933139 -18.4926236 4.75772156 -17.9334259 4.30892944 C-12.08034395 0.14023163 -7.04213576 -0.08978802 0 0 Z " fill="#2973BB" transform="translate(360.578125,260.37109375)"/>
<path d="M0 0 C1.23503769 -0.01051392 1.23503769 -0.01051392 2.49502563 -0.02124023 C5.20853696 -0.03880311 7.92100011 -0.02720495 10.63452148 -0.01367188 C12.52351583 -0.01636703 14.41250882 -0.02024965 16.30149841 -0.02526855 C20.25663487 -0.03116106 24.21140955 -0.02260767 28.16650391 -0.00390625 C33.23655472 0.0188988 38.30575928 0.00574886 43.37577915 -0.01819611 C47.27486046 -0.03264745 51.17374096 -0.02805142 55.07282829 -0.01768494 C56.94234251 -0.01501662 58.81187495 -0.01829108 60.68136787 -0.02760315 C63.29327864 -0.03775964 65.90381654 -0.02228183 68.515625 0 C69.28820145 -0.00809692 70.06077789 -0.01619385 70.85676575 -0.02453613 C74.14399072 0.0274314 76.35064638 0.3066054 79.17185974 2.04457092 C81.30031471 5.50466326 81.25251073 8.66151591 81.21069336 12.60327148 C81.21770264 13.41512405 81.22471191 14.22697662 81.23193359 15.06343079 C81.24952771 17.7451099 81.23788511 20.42573215 81.22436523 23.10742188 C81.22706001 24.97302961 81.23094231 26.83863597 81.23596191 28.70423889 C81.24185909 32.6140785 81.23328796 36.52355251 81.21459961 40.43334961 C81.19182569 45.44167962 81.20492178 50.44915149 81.22888947 55.45744991 C81.24335503 59.31025132 81.23873771 63.16284986 81.2283783 67.01565742 C81.22571228 68.86201644 81.22897636 70.70839395 81.23829651 72.55473137 C81.24847291 75.13781252 81.23294594 77.71951181 81.21069336 80.30249023 C81.21879028 81.06369171 81.22688721 81.82489319 81.23522949 82.60916138 C81.17685442 86.27274432 80.7918661 88.36118944 78.81770325 91.48760986 C74.89991897 95.23091336 70.04238772 94.3860241 64.88061523 94.33007812 C63.75147705 94.31944336 62.62233887 94.30880859 61.45898438 94.29785156 C51.31471657 93.94015216 44.75469073 91.44729505 36.69311523 85.51757812 C35.34691191 84.57855976 34.0005516 83.63976642 32.65405273 82.70117188 C24.08794898 76.59216879 16.26241901 69.8141142 8.69311523 62.51757812 C7.97897461 61.855 7.26483398 61.19242188 6.52905273 60.50976562 C2.44039535 56.6165819 -1.10101641 52.40629735 -4.55688477 47.95507812 C-4.9695459 47.42479004 -5.38220703 46.89450195 -5.80737305 46.34814453 C-7.00948546 44.76436264 -8.15841103 43.14067622 -9.30688477 41.51757812 C-10.05325195 40.54304687 -10.79961914 39.56851563 -11.56860352 38.56445312 C-14.45847847 33.33677498 -13.93819562 27.20305466 -13.88330078 21.3918457 C-13.86933985 19.32342366 -13.90367535 17.25945371 -13.94165039 15.19140625 C-13.9397168 13.88236328 -13.9377832 12.57332031 -13.93579102 11.22460938 C-13.93687866 9.4376062 -13.93687866 9.4376062 -13.93798828 7.61450195 C-13.30688477 4.51757812 -13.30688477 4.51757812 -11.28662109 2.35636902 C-7.49061198 0.01385739 -4.32586385 -0.04545596 0 0 Z " fill="#2B74BB" transform="translate(322.306884765625,486.482421875)"/>
<path d="M0 0 C1.23481865 -0.00810448 1.23481865 -0.00810448 2.49458313 -0.01637268 C5.21355226 -0.0288718 7.93146495 -0.01236149 10.65039062 0.00561523 C12.54081274 0.00546027 14.43123518 0.00397178 16.32165527 0.00120544 C20.2827764 -0.00017908 24.24353568 0.0123884 28.20458984 0.03515625 C33.28240962 0.06354101 38.3596281 0.06080426 43.43749237 0.04806614 C47.34085222 0.04111166 51.24407306 0.04889561 55.14741516 0.06132317 C57.01971402 0.06583991 58.89202779 0.06617252 60.764328 0.06225777 C63.38095702 0.05934781 65.99675699 0.07584188 68.61328125 0.09765625 C69.77450249 0.09090378 69.77450249 0.09090378 70.95918274 0.08401489 C74.14969326 0.12821674 76.45076014 0.30959531 79.28340149 1.83872986 C82.61759339 5.47879621 81.50870154 11.64154171 81.49291992 16.3684082 C81.49412191 18.46899928 81.55354372 20.56236354 81.6171875 22.66186523 C81.74096544 31.98162403 79.78474774 38.15095469 73.80664062 45.50170898 C73.31478271 46.14462891 72.8229248 46.78754883 72.31616211 47.44995117 C70.98616102 49.1418557 69.60584296 50.76361975 68.18164062 52.37670898 C67.67366943 52.95839844 67.16569824 53.54008789 66.64233398 54.1394043 C53.71548922 68.76730567 39.8204849 80.82103281 22.80664062 90.50170898 C21.95199219 91.06116211 21.09734375 91.62061523 20.21679688 92.19702148 C14.93883116 94.21631192 9.78210307 93.974533 4.18164062 93.93920898 C3.04984375 93.95918945 1.91804687 93.97916992 0.75195312 93.99975586 C-0.33601562 93.99911133 -1.42398438 93.9984668 -2.54492188 93.99780273 C-3.53314941 93.99965576 -4.52137695 94.00150879 -5.53955078 94.00341797 C-9.06836027 93.33628793 -10.0358866 92.36918541 -12.19335938 89.50170898 C-12.58798791 86.64181393 -12.74083663 84.16700802 -12.7109375 81.30834961 C-12.71794678 80.48513718 -12.72495605 79.66192474 -12.73217773 78.81376648 C-12.74977128 76.09482002 -12.73813048 73.37691588 -12.72460938 70.65795898 C-12.72730391 68.7675354 -12.731186 66.87711317 -12.73620605 64.98669434 C-12.74210294 61.02558186 -12.73353205 57.06483028 -12.71484375 53.10375977 C-12.69205407 48.02583337 -12.70517614 42.94875261 -12.72913361 37.87085724 C-12.74358646 33.9674848 -12.73898795 30.06431292 -12.72862244 26.16093445 C-12.72595373 24.28862915 -12.72922996 22.41630566 -12.73854065 20.54402161 C-12.74869788 17.92721313 -12.73321756 15.31177476 -12.7109375 12.69506836 C-12.71903442 11.92092087 -12.72713135 11.14677338 -12.73547363 10.34916687 C-12.68361644 7.06227754 -12.40418921 4.84573582 -10.6730957 2.02098083 C-7.17990049 -0.11921169 -3.97467306 -0.04963785 0 0 Z " fill="#369E43" transform="translate(548.193359375,486.498291015625)"/>
<path d="M0 0 C7.34486096 0.52463293 14.69328841 1.08666105 22 2 C29.59 2.33 37.18 2.66 45 3 C45 51.18 45 99.36 45 149 C30.15 149 15.3 149 0 149 C0 99.83 0 50.66 0 0 Z " fill="#1A446D" transform="translate(424,697)"/>
<path d="M0 0 C-3.43721022 2.09142834 -6.11111175 2.2472693 -10.09967041 2.24050903 C-11.35046387 2.24325836 -12.60125732 2.24600769 -13.88995361 2.24884033 C-15.27331639 2.24176252 -16.6566782 2.23449291 -18.04003906 2.22705078 C-19.49873853 2.22648655 -20.95743856 2.22680346 -22.4161377 2.22793579 C-26.37450202 2.22850985 -30.33274525 2.21674694 -34.29108143 2.20278788 C-38.4284027 2.1902894 -42.56572672 2.18911071 -46.70306396 2.18673706 C-54.53696951 2.1805197 -62.37081926 2.16410541 -70.20470023 2.14403808 C-79.12359974 2.12168706 -88.0425019 2.11068766 -96.96142244 2.10064721 C-115.30765302 2.0797394 -133.65380712 2.04305996 -152 2 C-152 15.2 -152 28.4 -152 42 C-100.85 42 -49.7 42 3 42 C-1.1229397 44.06146985 -2.8099599 44.24785252 -7.28948975 44.24050903 C-8.58235397 44.24325836 -9.8752182 44.24600769 -11.20726013 44.24884033 C-12.63784883 44.24176246 -14.06843659 44.23449285 -15.49902344 44.22705078 C-17.00698336 44.22648657 -18.51494384 44.22680341 -20.02290344 44.22793579 C-24.11555936 44.22850993 -28.2080982 44.21674565 -32.30072689 44.20278788 C-36.57818446 44.19029081 -40.85564467 44.18911082 -45.13311768 44.18673706 C-53.23264209 44.18051928 -61.33211256 44.16410443 -69.43161321 44.14403808 C-78.65280469 44.12168835 -87.87399873 44.11068798 -97.09521055 44.10064721 C-116.06351051 44.07973846 -135.0317365 44.0430585 -154 44 C-154 29.48 -154 14.96 -154 0 C-134.21623735 -0.15300479 -114.43245786 -0.30183394 -94.64860725 -0.4429636 C-85.46314367 -0.50862396 -76.27770137 -0.57618758 -67.09228516 -0.64819336 C-59.08861033 -0.71093051 -51.08491861 -0.77013581 -43.08118618 -0.82505554 C-38.8411791 -0.854274 -34.60120202 -0.8852911 -30.36124039 -0.92053413 C-26.37392709 -0.95362142 -22.38660854 -0.98200146 -18.39923477 -1.00670624 C-16.93263458 -1.01663462 -15.46604506 -1.02831132 -13.99947357 -1.04183006 C-12.00335822 -1.05997357 -10.00718454 -1.07132709 -8.01101685 -1.08229065 C-6.89196016 -1.09058679 -5.77290348 -1.09888292 -4.61993599 -1.10743046 C-2 -1 -2 -1 0 0 Z " fill="#3A5A79" transform="translate(649,802)"/>
<path d="M0 0 C2.72885887 -0.31282672 5.23326063 -0.43017285 7.96630859 -0.41992188 C8.78922897 -0.42839142 9.61214935 -0.43686096 10.46000671 -0.44558716 C13.18963942 -0.46905128 15.91871143 -0.46997699 18.6484375 -0.46875 C20.54171985 -0.47584677 22.43500003 -0.48354504 24.32827759 -0.49182129 C28.30126926 -0.50528834 32.27406216 -0.5068253 36.24707031 -0.50097656 C41.34083557 -0.49508347 46.4336467 -0.52564531 51.5272274 -0.56609344 C55.43916978 -0.59193506 59.35088152 -0.59485099 63.26289749 -0.59120178 C65.14080831 -0.59289688 67.01872934 -0.60257674 68.89655685 -0.62034607 C71.52332187 -0.64246269 74.14814443 -0.63287168 76.77490234 -0.61523438 C77.55219193 -0.62849762 78.32948151 -0.64176086 79.13032532 -0.65542603 C82.74554914 -0.59897342 84.65290513 -0.28376932 87.48271179 2.02975464 C89.40266614 5.78825977 89.55463834 9.0143923 89.50170898 13.13916016 C89.50981346 14.34734657 89.50981346 14.34734657 89.51808167 15.5799408 C89.53055526 18.23335894 89.51409054 20.88568935 89.49609375 23.5390625 C89.49624874 25.38561052 89.49773772 27.23215888 89.50050354 29.07870483 C89.50188681 32.94389265 89.48933913 36.80870906 89.46655273 40.67382812 C89.43812847 45.63177459 89.44091713 50.58910588 89.45364285 55.54709816 C89.46059115 59.3577705 89.45282114 63.16830019 89.44038582 66.97895432 C89.43586586 68.80742216 89.43553926 70.63590529 89.43945122 72.46437454 C89.44235616 75.01644665 89.42589288 77.56766464 89.40405273 80.11962891 C89.40855438 80.87709915 89.41305603 81.6345694 89.41769409 82.41499329 C89.35483547 86.82746436 89.27651981 87.72348019 86 91 C86 61.96 86 32.92 86 3 C56.96 3 27.92 3 -2 3 C-1.34 2.01 -0.68 1.02 0 0 Z " fill="#F3C840" transform="translate(427,374)"/>
<path d="M0 0 C7.65374424 -0.07586651 15.30739207 -0.12852217 22.96142578 -0.16479492 C25.56693139 -0.17991108 28.17241144 -0.20040432 30.77783203 -0.22631836 C34.51601456 -0.26257688 38.25386165 -0.27969798 41.9921875 -0.29296875 C43.16304901 -0.30845261 44.33391052 -0.32393646 45.54025269 -0.33988953 C46.62122223 -0.34011612 47.70219177 -0.34034271 48.81591797 -0.34057617 C50.24821243 -0.35056892 50.24821243 -0.35056892 51.70944214 -0.36076355 C52.46532623 -0.24171158 53.22121033 -0.12265961 54 0 C54.66 0.99 55.32 1.98 56 3 C55.31539703 2.99555878 54.63079407 2.99111755 53.92544556 2.98654175 C46.82076091 2.94240503 39.716115 2.9121739 32.61132812 2.89013672 C29.95734069 2.88005911 27.3033644 2.86639687 24.64941406 2.84912109 C20.84176893 2.82495008 17.03427016 2.81353465 13.2265625 2.8046875 C12.03382721 2.79436493 10.84109192 2.78404236 9.61221313 2.77340698 C8.51122284 2.77325592 7.41023254 2.77310486 6.27587891 2.77294922 C5.30325104 2.768508 4.33062317 2.76406677 3.32852173 2.75949097 C0.80696897 2.77255405 0.80696897 2.77255405 -1 5 C-1.21754174 7.70874625 -1.31141101 10.31832271 -1.31884766 13.02978516 C-1.32889328 13.85913071 -1.3389389 14.68847626 -1.34928894 15.54295349 C-1.38024662 18.29164926 -1.39719084 21.0402471 -1.4140625 23.7890625 C-1.43276404 25.6919337 -1.45233668 27.59479652 -1.4727478 29.49765015 C-1.52418217 34.51174998 -1.56374724 39.52587674 -1.60089111 44.5401001 C-1.64086007 49.65440593 -1.69198474 54.76859869 -1.7421875 59.8828125 C-1.83908055 69.9217957 -1.92344236 79.96084258 -2 90 C-2.66 89.67 -3.32 89.34 -4 89 C-4 60.95 -4 32.9 -4 4 C-2.68 3.34 -1.36 2.68 0 2 C0 1.34 0 0.68 0 0 Z " fill="#FDF8CA" transform="translate(538,260)"/>
<path d="M0 0 C1.22982605 -0.00065712 1.22982605 -0.00065712 2.48449707 -0.00132751 C5.19010363 0.0007598 7.89508784 0.02408797 10.60058594 0.04760742 C12.47816632 0.05320358 14.35575108 0.05747359 16.2333374 0.06047058 C21.17195762 0.07191777 26.1103126 0.10138392 31.04882812 0.13458252 C36.08948173 0.16528608 41.13017825 0.17897653 46.17089844 0.1940918 C56.05903572 0.22625369 65.94697626 0.27744858 75.83496094 0.34057617 C76.32996094 1.33057617 76.32996094 1.33057617 76.83496094 2.34057617 C75.78926437 2.34644241 74.74356781 2.35230865 73.66618347 2.35835266 C63.82186522 2.41551199 53.97776932 2.48823778 44.13367748 2.57629108 C39.0724515 2.62106001 34.01130723 2.66030164 28.94995117 2.68701172 C24.06742558 2.71297976 19.18521336 2.75333572 14.30288124 2.80376244 C12.43816329 2.82047525 10.57339108 2.83196196 8.70860863 2.83819008 C6.10089471 2.84778336 3.49399052 2.87578436 0.88647461 2.90820312 C0.1117984 2.90676804 -0.66287781 2.90533295 -1.46102905 2.90385437 C-4.28292128 2.95362319 -6.60805374 3.05202 -9.14123535 4.36437988 C-10.80050298 7.56717989 -10.60394131 10.867558 -10.59741211 14.39208984 C-10.60760376 15.21182785 -10.61779541 16.03156586 -10.6282959 16.87614441 C-10.6585022 19.58701341 -10.66770339 22.29752952 -10.67675781 25.00854492 C-10.69359886 26.88757 -10.71174831 28.76658378 -10.7311554 30.64558411 C-10.77872397 35.59227974 -10.80848893 40.53892955 -10.83459473 45.48577881 C-10.8643657 50.53317315 -10.91090788 55.58040946 -10.95605469 60.62768555 C-11.04216579 70.53189988 -11.10947631 80.43614667 -11.16503906 90.34057617 C-11.49503906 90.34057617 -11.82503906 90.34057617 -12.16503906 90.34057617 C-12.25762468 79.04906759 -12.32874592 67.75764896 -12.37228775 56.46583843 C-12.39318325 51.2228577 -12.42153678 45.9801362 -12.46679688 40.73730469 C-12.51018451 35.67985796 -12.53416137 30.62266094 -12.54454803 25.5650425 C-12.55195215 23.63325887 -12.5664103 21.70148926 -12.58795929 19.76981163 C-12.61689932 17.06873161 -12.62099904 14.36868999 -12.61914062 11.66748047 C-12.63352173 10.86475204 -12.64790283 10.06202362 -12.66271973 9.23497009 C-12.63907708 6.06971289 -12.59718038 3.90966418 -10.64697266 1.34143066 C-7.10848832 -0.0854842 -3.75334604 -0.05250155 0 0 Z " fill="#FEFCDF" transform="translate(434.1650390625,371.659423828125)"/>
<path d="M0 0 C0.66 0.33 1.32 0.66 2 1 C2.06940502 12.04804177 2.12276284 23.09603197 2.15543652 34.14424706 C2.17111552 39.27397721 2.19239443 44.4035586 2.22631836 49.53320312 C2.25883229 54.48040867 2.27683616 59.42747082 2.28463173 64.37477493 C2.2901896 66.26550175 2.30104227 68.15622042 2.31719017 70.04688644 C2.33885879 72.68817061 2.3419714 75.3288566 2.34057617 77.97021484 C2.351362 78.75783707 2.36214783 79.54545929 2.3732605 80.35694885 C2.36076355 82.53256226 2.36076355 82.53256226 2 86 C0.515 86.99 0.515 86.99 -1 88 C-0.67 58.96 -0.34 29.92 0 0 Z " fill="#CF5054" transform="translate(514,264)"/>
<path d="M0 0 C0.99 0.33 1.98 0.66 3 1 C2.27087654 1.4934063 2.27087654 1.4934063 1.52702332 1.9967804 C-0.81882181 5.07416821 -0.43926299 8.33225179 -0.43237305 12.05151367 C-0.4425647 12.87125168 -0.45275635 13.69098969 -0.46325684 14.53556824 C-0.49346314 17.24643724 -0.50266432 19.95695335 -0.51171875 22.66796875 C-0.52855979 24.54699383 -0.54670925 26.4260076 -0.56611633 28.30500793 C-0.61368491 33.25170357 -0.64344987 38.19835338 -0.66955566 43.14520264 C-0.69932663 48.19259698 -0.74586882 53.23983329 -0.79101562 58.28710938 C-0.87712673 68.19132371 -0.94443725 78.09557049 -1 88 C-1.33 88 -1.66 88 -2 88 C-2 59.29 -2 30.58 -2 1 C-1.34 0.67 -0.68 0.34 0 0 Z " fill="#FEFBCC" transform="translate(424,374)"/>
<path d="M0 0 C0.33 0 0.66 0 1 0 C1.20003255 10.90017332 1.38377298 21.80048693 1.54658794 32.70128345 C1.62270041 37.76270261 1.70447017 42.82389975 1.79907227 47.88500977 C1.8901239 52.76722407 1.96644116 57.64946481 2.03244972 62.5320797 C2.06026905 64.39692494 2.09344058 66.26169811 2.13199425 68.12635231 C2.18499972 70.73374344 2.2191449 73.34073969 2.2487793 75.94848633 C2.26891586 76.72316254 2.28905243 77.49783875 2.30979919 78.29598999 C2.34149733 83.5486162 2.34149733 83.5486162 0.48445129 86.0032196 C-0.00541763 86.33215714 -0.49528656 86.66109467 -1 87 C-1.66 86.67 -2.32 86.34 -3 86 C-2.34 85.01 -1.68 84.02 -1 83 C-0.78700373 80.31394779 -0.68873882 77.72807247 -0.68115234 75.0402832 C-0.66608391 73.82530655 -0.66608391 73.82530655 -0.65071106 72.58578491 C-0.61981063 69.9074576 -0.60282496 67.22923056 -0.5859375 64.55078125 C-0.56723136 62.69417962 -0.54765837 60.83758653 -0.5272522 58.98100281 C-0.47586643 54.09350621 -0.43627523 49.20598203 -0.39910889 44.31835938 C-0.35910961 39.33131043 -0.3079987 34.34437687 -0.2578125 29.35742188 C-0.16097692 19.57169556 -0.07659658 9.78590419 0 0 Z " fill="#D8F3FB" transform="translate(403,492)"/>
<path d="M0 0 C0.33 0 0.66 0 1 0 C1.06058594 0.75925781 1.12117187 1.51851563 1.18359375 2.30078125 C1.26738281 3.29464844 1.35117188 4.28851563 1.4375 5.3125 C1.55931641 6.79169922 1.55931641 6.79169922 1.68359375 8.30078125 C1.91812559 11.09375599 1.91812559 11.09375599 3 14 C2.34 14 1.68 14 1 14 C1 15.65 1 17.3 1 19 C0.67 19 0.34 19 0 19 C-0.88789523 13.00670719 -1.40182396 7.06281442 -1 1 C-0.67 0.67 -0.34 0.34 0 0 Z " fill="#375877" transform="translate(205,431)"/>
<path d="M0 0 C4.91935902 4.11619836 9.52647956 8.40410362 14 13 C13.01 13.495 13.01 13.495 12 14 C11.319375 13.29875 10.63875 12.5975 9.9375 11.875 C7.25474712 9.16141088 4.34916076 6.79144879 1.35546875 4.4296875 C0 3 0 3 0 0 Z " fill="#234D74" transform="translate(813,691)"/>
<path d="M0 0 C3.87511727 0.54984772 5.59576506 2.27555331 8.25 5.0625 C8.95640625 5.79597656 9.6628125 6.52945313 10.390625 7.28515625 C10.92171875 7.85105469 11.4528125 8.41695312 12 9 C11.34 9.66 10.68 10.32 10 11 C8.0625 10.25 8.0625 10.25 6 9 C5.6278958 7.67696283 5.29369827 6.34262065 5 5 C4.01 4.34 3.02 3.68 2 3 C2 2.34 2 1.68 2 1 C1.34 0.67 0.68 0.34 0 0 Z " fill="#25507A" transform="translate(787,667)"/>
<path d="M0 0 C2.99305473 1.72327394 5.89811351 3.55366097 8.75 5.5 C9.34296875 5.9021875 9.9359375 6.304375 10.546875 6.71875 C12 8 12 8 13 11 C9.66118147 10.42434163 8.27198545 9.46131758 6 7 C5.278125 6.484375 4.55625 5.96875 3.8125 5.4375 C3.214375 4.963125 2.61625 4.48875 2 4 C2 3.34 2 2.68 2 2 C1.34 2 0.68 2 0 2 C0 1.34 0 0.68 0 0 Z " fill="#F1C53D" transform="translate(596,266)"/>
<path d="M0 0 C3.3 0 6.6 0 10 0 C8.75023244 3.65316671 8.32901247 4.78065836 5 7 C5.66 5.35 6.32 3.7 7 2 C4.69 1.67 2.38 1.34 0 1 C0 0.67 0 0.34 0 0 Z " fill="#264563" transform="translate(478,629)"/>
<path d="M0 0 C4.50884026 2.31883213 6.93906776 5.06451569 10 9 C5.74257863 8.52695318 3.74294902 6.1136178 1 3 C0.67 2.01 0.34 1.02 0 0 Z " fill="#2B537A" transform="translate(736,615)"/>
<path d="M0 0 C0.99 0.33 1.98 0.66 3 1 C2.51917969 1.53109375 2.03835938 2.0621875 1.54296875 2.609375 C-0.38380447 5.59465402 -0.4958424 7.72350016 -0.6875 11.25 C-0.75324219 12.32765625 -0.81898438 13.4053125 -0.88671875 14.515625 C-0.92410156 15.33546875 -0.96148437 16.1553125 -1 17 C-1.33 17 -1.66 17 -2 17 C-2.05383848 14.54137599 -2.09359038 12.0839245 -2.125 9.625 C-2.14175781 8.92632812 -2.15851563 8.22765625 -2.17578125 7.5078125 C-2.19344267 5.67102514 -2.10303261 3.83398037 -2 2 C-1.34 1.34 -0.68 0.68 0 0 Z " fill="#409E4F" transform="translate(426,488)"/>
<path d="M0 0 C2.86453858 3.41016497 4.34703566 6.90694544 6 11 C5.34 11 4.68 11 4 11 C3.67 9.68 3.34 8.36 3 7 C2.01 7.33 1.02 7.66 0 8 C0 5.36 0 2.72 0 0 Z " fill="#2E4966" transform="translate(204,535)"/>
<path d="M0 0 C0.66 0 1.32 0 2 0 C1.32829194 3.8063457 0.27253436 7.35206816 -1 11 C-1.33 11 -1.66 11 -2 11 C-2.05399736 9.54207116 -2.09279177 8.08357288 -2.125 6.625 C-2.15980469 5.40683594 -2.15980469 5.40683594 -2.1953125 4.1640625 C-2 2 -2 2 0 0 Z " fill="#3F9C4D" transform="translate(539,488)"/>
<path d="M0 0 C0 4.01094227 -1.76100999 5.74328725 -4 9 C-4.33 9.99 -4.66 10.98 -5 12 C-5.99 11.67 -6.98 11.34 -8 11 C-7.04454634 9.53977837 -6.08553322 8.08188532 -5.125 6.625 C-4.59132813 5.81289063 -4.05765625 5.00078125 -3.5078125 4.1640625 C-2 2 -2 2 0 0 Z " fill="#3976B1" transform="translate(320,287)"/>
<path d="M0 0 C3.25543229 0.34879632 4.01873107 1.02133261 6.25 3.5625 C6.8275 4.366875 7.405 5.17125 8 6 C4.38462395 6 2.88834003 5.10770759 0 3 C0 2.01 0 1.02 0 0 Z " fill="#2B557F" transform="translate(745,625)"/>
<path d="M0 0 C0.66 0 1.32 0 2 0 C2 3.76687864 1.76462683 4.91190305 0 8 C-0.66 7.34 -1.32 6.68 -2 6 C-1.44444444 1.44444444 -1.44444444 1.44444444 0 0 Z " fill="#3B9D4C" transform="translate(539,375)"/>
<path d="M0 0 C1.32 0.33 2.64 0.66 4 1 C1.69 2.65 -0.62 4.3 -3 6 C-3.66 5.67 -4.32 5.34 -5 5 C-2.75 2.4375 -2.75 2.4375 0 0 Z " fill="#427DB6" transform="translate(333,273)"/>
<path d="M0 0 C3 0 3 0 4.625 1.1875 C6.31412056 3.41406801 6.62952882 5.25851328 7 8 C4.35247996 5.42215154 2.05567935 3.08351902 0 0 Z " fill="#FDF8D4" transform="translate(618,286)"/>
<path d="M0 0 C0.66 0.66 1.32 1.32 2 2 C1.01 3.98 0.02 5.96 -1 8 C-1.66 7.67 -2.32 7.34 -3 7 C-1.125 1.125 -1.125 1.125 0 0 Z " fill="#E9F2F6" transform="translate(351,696)"/>
</svg>
