<?xml version="1.0" encoding="UTF-8"?>
<svg version="1.1" xmlns="http://www.w3.org/2000/svg" width="1024" height="1024">
<path d="M0 0 C1.15822266 0.28979736 1.15822266 0.28979736 2.33984375 0.58544922 C49.02332386 12.32711308 91.16559427 36.14366825 127 68 C127.82056885 68.72582275 127.82056885 68.72582275 128.65771484 69.46630859 C134.13902419 74.33221862 139.45656115 79.22846622 144.171875 84.859375 C146.01856282 87.02173595 147.94500021 89.09564652 149.89160156 91.16796875 C165.91865561 108.3075537 179.10411266 128.25549993 190 149 C190.34224609 149.64743164 190.68449219 150.29486328 191.03710938 150.96191406 C196.33415968 161.05413655 200.88042519 171.37635522 205 182 C205.38236816 182.96631348 205.38236816 182.96631348 205.77246094 183.95214844 C216.18134514 210.49547992 222.04139469 239.57781161 222.23828125 268.09375 C222.246353 269.23871948 222.25442474 270.38368896 222.26274109 271.56335449 C222.27651083 273.9837903 222.28726444 276.40424495 222.29516602 278.82470703 C222.30658718 281.24631641 222.32687834 283.66790265 222.35668945 286.08935547 C222.56972353 303.45817817 221.17444167 319.92484726 218 337 C217.82090591 337.98565445 217.64181183 338.9713089 217.45729065 339.98683167 C215.64351011 349.95009063 213.52141857 359.47582572 210 369 C209.536832 370.41509339 209.07831912 371.83172088 208.625 373.25 C201.5567716 394.230297 192.72674238 414.19926741 181 433 C180.11942531 434.42946188 179.23922046 435.85915165 178.359375 437.2890625 C174.400027 443.69120913 170.43146332 450.041855 165.9609375 456.10546875 C164.70461655 458.58236167 164.66004105 460.25825311 165 463 C167.39585286 465.64587234 167.39585286 465.64587234 170 468 C170.33 468.99 170.66 469.98 171 471 C172.32360043 471.68578724 173.65821531 472.35051092 175 473 C176.54541016 474.60400391 176.54541016 474.60400391 178.0390625 476.4765625 C184.91404066 485.03744224 184.91404066 485.03744224 194.70703125 488.91796875 C197.78164339 488.96263776 200.75819366 488.69265264 203.80859375 488.33203125 C211.88608144 487.38278589 219.23435161 490.88118876 226 495 C233.64174798 501.21751242 240.53054932 508.36594466 247.50488281 515.31201172 C248.61959418 516.41879815 249.73447763 517.5254113 250.84951782 518.63186646 C254.47103898 522.22747605 258.08739179 525.82825898 261.703125 529.4296875 C262.95670945 530.67790233 264.21029784 531.92611321 265.46389008 533.17432022 C270.67867336 538.36753345 275.89203909 543.56216285 281.10170364 548.7605114 C288.53033753 556.17289167 295.96735424 563.57662819 303.4162457 570.96865261 C308.67710797 576.19073023 313.92827131 581.42243715 319.17241549 586.66130269 C322.29511738 589.78036721 325.42178658 592.89518408 328.55893707 595.99972153 C331.50854584 598.91909357 334.44586239 601.85030989 337.37452316 604.79069138 C338.44482291 605.86121045 339.51933655 606.92753746 340.5985527 607.98906708 C347.09331875 614.38322122 352.16006577 620.66337279 356 629 C356.34612965 629.74965971 356.69225929 630.49931942 357.04887772 631.27169609 C361.76711947 642.21344911 359.49548348 654.92991497 355.484375 665.65625 C353.45755593 670.22192665 351.11813523 674.10807692 348 678 C347.46503906 678.69609375 346.93007813 679.3921875 346.37890625 680.109375 C339.14594767 688.99605852 328.26327019 695.61800451 317 698 C313.62818983 698.24438773 310.2548082 698.23111839 306.875 698.25 C305.52535156 698.2809375 305.52535156 698.2809375 304.1484375 698.3125 C288.97577769 698.39969919 278.15590635 691.49760452 267.53209949 681.0762459 C265.89198068 679.44550442 264.26161403 677.80538144 262.63134766 676.16479492 C261.43669455 674.97721505 260.24120488 673.79047624 259.04495239 672.60450745 C255.82519892 669.40709415 252.61811421 666.1972605 249.41397524 662.98420882 C246.72890898 660.29400402 244.03762421 657.61006322 241.3463577 654.92606336 C234.99546229 648.59211648 228.65483454 642.2480224 222.32080078 635.8972168 C215.80242118 629.3619002 209.26779822 622.84316099 202.72483027 616.33246917 C197.08911382 610.72349492 191.46321143 605.1048103 185.84508932 599.47821313 C182.49755457 596.12576531 179.14660752 592.77693088 175.78633499 589.43724632 C172.62798618 586.29732873 169.4821546 583.14537305 166.34528732 579.98399925 C165.19713805 578.83086676 164.04477879 577.68190725 162.88778687 576.53764725 C156.56076993 570.27473883 151.30773598 564.42787362 148 556 C147.63279657 555.1261777 147.26559315 554.2523554 146.88726234 553.35205364 C145.93815865 550.83606407 145.86603455 549.28566493 146.078125 546.62890625 C146.62127467 535.98134272 146.62127467 535.98134272 141.96484375 526.75 C139.04509626 523.72619685 135.88515069 521.03218289 132.6171875 518.39379883 C130.42023076 516.50031664 128.73538411 514.31384548 127 512 C124.42762555 509.49531962 122.89500943 508.14807623 119.33203125 507.55859375 C114.58704031 508.18717989 111.81337308 510.52734575 108.0625 513.375 C106.53743368 514.48831647 105.01137497 515.60027466 103.484375 516.7109375 C102.34645508 517.5477002 102.34645508 517.5477002 101.18554688 518.40136719 C50.87355577 555.20240804 -10.55328222 573.44005574 -72.5 573.4375 C-73.51015167 573.43923218 -74.52030334 573.44096436 -75.56106567 573.44274902 C-89.49043048 573.43235795 -103.14764509 572.7485649 -116.9375 570.75 C-117.64874023 570.64767059 -118.35998047 570.54534119 -119.09277344 570.43991089 C-129.23058222 568.93741481 -139.10828693 566.63895407 -149 564 C-150.37514771 563.63527588 -150.37514771 563.63527588 -151.77807617 563.26318359 C-195.7223886 551.29349571 -236.78807892 528.41972181 -270.19921875 497.5546875 C-272.39307987 495.55359242 -274.61443985 493.61256189 -276.8671875 491.6796875 C-280.9778401 488.09212089 -284.73129387 484.2497622 -288.4375 480.25 C-289.41843628 479.19522461 -289.41843628 479.19522461 -290.41918945 478.11914062 C-295.52146534 472.59414987 -300.39368757 466.94779991 -305 461 C-305.44375977 460.43410156 -305.88751953 459.86820313 -306.34472656 459.28515625 C-329.25094259 429.98254589 -347.34589483 396.02890635 -357 360 C-357.19754883 359.30036133 -357.39509766 358.60072266 -357.59863281 357.87988281 C-367.9662618 320.77892746 -371.17601843 279.38087391 -364.41455078 241.36572266 C-364.00223375 239.01274738 -363.64793295 236.65747641 -363.30859375 234.29296875 C-360.64848144 216.22997909 -355.36911716 199.07281848 -349 182 C-348.54584717 180.76830078 -348.54584717 180.76830078 -348.08251953 179.51171875 C-334.27033497 142.36725207 -311.66641245 108.01868016 -283.328125 80.328125 C-281.52286254 78.52286254 -279.88985821 76.74798706 -278.3125 74.75 C-275.21089784 71.06160825 -271.68329255 68.09396574 -268 65 C-267.1234375 64.2471875 -266.246875 63.494375 -265.34375 62.71875 C-229.81568511 32.53899595 -187.95820572 10.43192938 -142.56152344 -0.37988281 C-140.26229192 -0.93650196 -137.97893813 -1.53150328 -135.6953125 -2.1484375 C-92.75344758 -13.5235244 -42.69277984 -11.01560575 0 0 Z M-254 124 C-257.14922572 127.55976834 -260.10324461 131.23271708 -263 135 C-263.41040527 135.52867676 -263.82081055 136.05735352 -264.24365234 136.60205078 C-290.30773393 170.36488025 -308.01769954 210.46760941 -313 253 C-313.14139404 254.20281616 -313.14139404 254.20281616 -313.28564453 255.42993164 C-314.14063856 263.62732076 -314.24322521 271.8284858 -314.25 280.0625 C-314.25067474 280.80544312 -314.25134949 281.54838623 -314.25204468 282.31384277 C-314.22097691 304.03340972 -311.57776752 324.99226685 -306 346 C-305.81743652 346.69673828 -305.63487305 347.39347656 -305.44677734 348.11132812 C-298.28307489 374.75527409 -285.33304466 399.86928083 -269 422 C-268.34330322 422.89211182 -268.34330322 422.89211182 -267.67333984 423.80224609 C-260.45903271 433.50240193 -252.37810413 442.30048522 -244 451 C-243.2471875 451.7940625 -242.494375 452.588125 -241.71875 453.40625 C-236.53820745 458.75664641 -230.85970916 463.41744757 -225 468 C-224.30358398 468.55107422 -223.60716797 469.10214844 -222.88964844 469.66992188 C-192.92278068 493.2724824 -158.60847113 509.20571102 -121.3125 517.1875 C-120.58933594 517.3424292 -119.86617187 517.4973584 -119.12109375 517.65698242 C-116.75288413 518.14079037 -114.37958081 518.57564067 -112 519 C-111.06397949 519.17877686 -110.12795898 519.35755371 -109.16357422 519.54174805 C-97.34339299 521.54290132 -85.45738159 521.43891212 -73.5 521.4375 C-71.80423828 521.43959976 -71.80423828 521.43959976 -70.07421875 521.44174194 C-51.8503876 521.4231995 -34.76299382 520.23399885 -17 516 C-16.04287109 515.78118164 -15.08574219 515.56236328 -14.09960938 515.33691406 C-6.04683387 513.47268802 1.90712032 511.38267785 9.5078125 508.08203125 C12.05042266 506.97810803 14.62606022 505.98359682 17.21362305 504.99072266 C26.09943762 501.54717157 34.57994013 497.45372021 43 493 C43.6614502 492.65066406 44.32290039 492.30132813 45.00439453 491.94140625 C59.70434121 484.10143469 73.38783732 474.90674446 86 464 C86.75796875 463.35289062 87.5159375 462.70578125 88.296875 462.0390625 C90.91600341 459.74512789 93.47140781 457.39257795 96 455 C96.62181152 454.4121875 97.24362305 453.824375 97.88427734 453.21875 C108.36941242 443.2220452 117.64555275 432.837124 126 421 C126.45455566 420.35820801 126.90911133 419.71641602 127.37744141 419.05517578 C145.80596248 392.78962666 160.01363405 362.63138106 166 331 C166.14131348 330.26249512 166.28262695 329.52499023 166.42822266 328.76513672 C168.47286801 317.95444731 170.14836675 307.35199867 170.203125 296.33203125 C170.20882507 295.41653 170.21452515 294.50102875 170.22039795 293.55778503 C170.22980385 291.62227515 170.23636428 289.68674957 170.24023438 287.7512207 C170.24982307 284.86574145 170.28083952 281.98101216 170.3125 279.09570312 C170.38552607 266.14680966 169.18177431 253.75496186 167 241 C166.75331948 239.50518345 166.50696528 238.01031301 166.26098633 236.51538086 C165.09038922 229.58481686 163.52137842 222.86975757 161.5625 216.125 C161.36930176 215.45952148 161.17610352 214.79404297 160.97705078 214.10839844 C159.31043799 208.60381447 157.18334221 203.31702651 155 198 C154.67974854 197.20013672 154.35949707 196.40027344 154.02954102 195.57617188 C144.07107003 170.77678843 130.48212777 148.24077546 113 128 C112.30777344 127.19691406 111.61554688 126.39382813 110.90234375 125.56640625 C101.42259338 114.81351336 91.36461304 104.756827 80 96 C79.40848145 95.5373877 78.81696289 95.07477539 78.20751953 94.59814453 C68.86810884 87.30832765 59.35626155 80.75507794 49 75 C48.23091309 74.5683252 47.46182617 74.13665039 46.66943359 73.69189453 C22.59383422 60.28589267 -3.65467276 50.16918899 -31 46 C-31.88123535 45.86464844 -32.7624707 45.72929687 -33.67041016 45.58984375 C-116.9724221 33.31637658 -196.8341879 62.92068606 -254 124 Z " fill="#C4C4C4" transform="translate(546,163)"/>
<path d="M0 0 C1.95788452 -0.00861053 1.95788452 -0.00861053 3.95532227 -0.01739502 C6.70925842 -0.0262064 9.46202137 -0.01349991 12.21582031 0.01464844 C15.73022342 0.04883801 19.24187738 0.02913559 22.75617981 -0.00678635 C26.12933499 -0.03379282 29.50176692 -0.01483506 32.875 0 C34.12933838 -0.01214539 35.38367676 -0.02429077 36.67602539 -0.0368042 C46.42651706 0.1197251 46.42651706 0.1197251 50.72705078 2.96191406 C55.31601549 7.80867172 54.4419909 14.7002583 54.3671875 20.953125 C54.37190894 22.34265981 54.37870763 23.73218897 54.38748169 25.1217041 C54.39777468 28.02717394 54.38289687 30.93113241 54.35009766 33.83642578 C54.31020665 37.5496473 54.33318608 41.25932801 54.3751049 44.97241974 C54.40047571 47.83980704 54.39231658 50.70636306 54.37421036 53.57377625 C54.36956121 54.94203619 54.37519974 56.31037314 54.39156723 57.67854309 C54.50331449 69.6436085 54.50331449 69.6436085 50.71777344 73.63842773 C45.40526791 77.15022939 39.1573819 76.59502424 33.0234375 76.48828125 C31.09173203 76.48621925 31.09173203 76.48621925 29.1210022 76.4841156 C26.40568868 76.47944328 23.69157439 76.45475078 20.9765625 76.41430664 C17.50518445 76.36323448 14.03511584 76.35186767 10.56340599 76.35414219 C7.23740928 76.35312839 3.91183786 76.32660754 0.5859375 76.30078125 C-0.65684967 76.29744278 -1.89963684 76.29410431 -3.18008423 76.29066467 C-4.3383371 76.27152512 -5.49658997 76.25238556 -6.68994141 76.23266602 C-7.70585358 76.22123062 -8.72176575 76.20979523 -9.76846313 76.19801331 C-13.74045872 75.62775613 -16.17498899 73.81613209 -19.34677124 71.48616028 C-21.16979561 68.95302268 -20.97330009 66.86267024 -21.01416016 63.76831055 C-21.0365274 62.52659592 -21.05889465 61.28488129 -21.0819397 60.00553894 C-21.08984614 58.64823114 -21.09635244 57.29091457 -21.1015625 55.93359375 C-21.11374564 54.53977702 -21.12623174 53.14596291 -21.13900757 51.75215149 C-21.16148595 48.82925548 -21.17103763 45.90662017 -21.17333984 42.98364258 C-21.1786166 39.24709338 -21.2299001 35.51272852 -21.29285622 31.77676678 C-21.33382991 28.89668859 -21.34298283 26.01713275 -21.34345627 23.13678932 C-21.34882633 21.76006657 -21.36563038 20.38333724 -21.39430618 19.00690269 C-21.62487367 6.93027747 -21.62487367 6.93027747 -17.86083984 2.95532227 C-12.50973954 -0.56614435 -6.17656693 -0.05980586 0 0 Z " fill="#C5C4C5" transform="translate(346.5625,400.203125)"/>
<path d="M0 0 C1.1849556 -0.00960754 2.36991119 -0.01921509 3.59077454 -0.02911377 C4.87719345 -0.03336365 6.16361237 -0.03761353 7.48901367 -0.04199219 C8.8060881 -0.04769226 10.12316254 -0.05339233 11.48014832 -0.05926514 C14.27192572 -0.06977544 17.06367434 -0.07561757 19.85546875 -0.07910156 C23.42660135 -0.08457954 26.99735135 -0.10859195 30.56836414 -0.13707352 C33.97940662 -0.16022251 37.3903967 -0.16215138 40.80151367 -0.16699219 C42.08185989 -0.17933899 43.36220612 -0.19168579 44.68135071 -0.20440674 C45.87576279 -0.20140564 47.07017487 -0.19840454 48.30078125 -0.1953125 C49.34953934 -0.19895813 50.39829742 -0.20260376 51.47883606 -0.20635986 C54.81451923 0.22141069 56.65504516 1.16826449 59.34448242 3.16113281 C61.66775122 6.64603601 61.59722356 8.01443037 61.60327148 12.12963867 C61.60957581 13.35778793 61.61588013 14.58593719 61.62237549 15.8513031 C61.61879529 17.19286238 61.61469322 18.53442035 61.61010742 19.87597656 C61.61145487 21.25216236 61.61339608 22.62834769 61.61590576 24.00453186 C61.61885425 26.88872815 61.61456897 29.77280054 61.60522461 32.65698242 C61.59384083 36.35030728 61.60038428 40.0433411 61.61236954 43.73665524 C61.61960477 46.57884402 61.6172924 49.4209641 61.61211395 52.26315498 C61.6107815 53.62469073 61.61241102 54.98623274 61.61707306 56.34776115 C61.62216412 58.252917 61.61302588 60.15809475 61.60327148 62.06323242 C61.6016803 63.1467247 61.60008911 64.23021698 61.59844971 65.34654236 C61.33562132 68.25933595 61.04225059 69.79535654 59.34448242 72.16113281 C55.6966057 74.94878805 52.99678201 75.54110782 48.45605469 75.56518555 C47.29457413 75.57786972 46.13309357 75.59055389 44.93641663 75.60362244 C43.6904924 75.6006868 42.44456818 75.59775116 41.16088867 75.59472656 C39.8726268 75.59996841 38.58436493 75.60521027 37.25706482 75.61061096 C34.53439518 75.61952795 31.81201908 75.61713562 29.08935547 75.60717773 C25.61123523 75.59569242 22.13413096 75.61589806 18.65614414 75.64509487 C15.32433951 75.6679219 11.99276953 75.66098749 8.66088867 75.65722656 C7.41698868 75.66846054 6.17308868 75.67969452 4.89149475 75.69126892 C-6.06605289 75.60300743 -6.06605289 75.60300743 -10.65551758 71.16113281 C-12.75217835 67.85611446 -12.92222143 65.17018511 -12.96191406 61.29443359 C-12.97790146 60.11285675 -12.99388885 58.93127991 -13.01036072 57.71389771 C-13.01572342 56.44093842 -13.02108612 55.16797913 -13.02661133 53.85644531 C-13.0356398 52.54457245 -13.04466827 51.23269958 -13.05397034 49.881073 C-13.0704409 47.10542341 -13.07815687 44.32989417 -13.08105469 41.55419922 C-13.08643668 38.00756496 -13.12411456 34.46207069 -13.16979885 30.91575813 C-13.20679918 27.52099293 -13.20808677 24.12640524 -13.21411133 20.73144531 C-13.23364365 19.46253448 -13.25317596 18.19362366 -13.27330017 16.88626099 C-13.22306263 7.06742306 -13.22306263 7.06742306 -10.24560547 3.37548828 C-6.53986215 0.20732051 -4.79804893 0.03130924 0 0 Z " fill="#C5C5C5" transform="translate(449.655517578125,400.8388671875)"/>
<path d="M0 0 C1.16485931 -0.00953201 2.32971863 -0.01906403 3.52987671 -0.02888489 C5.41895248 -0.02751778 5.41895248 -0.02751778 7.34619141 -0.02612305 C8.63965485 -0.03040817 9.93311829 -0.0346933 11.26577759 -0.03910828 C14.00453792 -0.04656906 16.74316935 -0.04628079 19.48193359 -0.04101562 C22.98469466 -0.03522795 26.48692574 -0.0521349 29.98959923 -0.0753603 C33.33765186 -0.09367453 36.68558898 -0.08991151 40.03369141 -0.08862305 C41.91669449 -0.10243767 41.91669449 -0.10243767 43.83773804 -0.11653137 C45.00890167 -0.11030258 46.18006531 -0.10407379 47.38671875 -0.09765625 C48.92868423 -0.09860039 48.92868423 -0.09860039 50.50180054 -0.0995636 C54.50924986 0.43205629 56.92011788 2.24228149 60.11000061 4.59011841 C61.92234185 7.10749845 61.71141624 9.1518246 61.72680664 12.22729492 C61.73949081 13.45221649 61.75217499 14.67713806 61.76524353 15.93917847 C61.76319177 17.27756926 61.76020347 18.61595889 61.75634766 19.9543457 C61.76090924 21.3281378 61.76621475 22.70192762 61.77223206 24.07571411 C61.78116836 26.95576238 61.77873543 29.83553346 61.76879883 32.71557617 C61.75732342 36.40009607 61.77749441 40.08365554 61.80671597 43.76804924 C61.82509766 46.60602872 61.82478145 49.44377904 61.81907845 52.28180313 C61.81892539 53.6397346 61.82495714 54.99768175 61.83736992 56.35555649 C61.85230756 58.25806136 61.83895847 60.16072413 61.82446289 62.06323242 C61.82429672 63.14450409 61.82413055 64.22577576 61.82395935 65.33981323 C61.19511248 69.02207187 59.93471731 70.64133577 57.32275391 73.2746582 C54.12298281 75.46538047 51.37523553 75.54117549 47.54785156 75.58105469 C46.38629547 75.59704208 45.22473938 75.61302948 44.02798462 75.62950134 C42.15135635 75.63754539 42.15135635 75.63754539 40.23681641 75.64575195 C38.94713959 75.65478043 37.65746277 75.6638089 36.32870483 75.67311096 C33.60013327 75.68958053 30.87168411 75.69729731 28.14306641 75.70019531 C24.65695781 75.70557715 21.17200909 75.74325459 17.6862278 75.78893948 C14.34892991 75.82594389 11.01181241 75.82722759 7.67431641 75.83325195 C6.42727936 75.85278427 5.18024231 75.87231659 3.89541626 75.8924408 C-5.75943192 75.84219546 -5.75943192 75.84219546 -9.44921875 72.92724609 C-12.66457701 69.09918698 -12.80859419 66.34800669 -12.85424805 61.50561523 C-12.8735009 59.72829514 -12.8735009 59.72829514 -12.8931427 57.91506958 C-12.90052963 56.63381195 -12.90791656 55.35255432 -12.91552734 54.0324707 C-12.92359909 52.71681122 -12.93167084 51.40115173 -12.93998718 50.04562378 C-12.95499888 47.25982798 -12.9648447 44.47405754 -12.97241211 41.68823242 C-12.98348037 38.12486159 -13.01789102 34.56211457 -13.05758381 30.99896431 C-13.09005302 27.59349145 -13.09452834 24.1880864 -13.10302734 20.7824707 C-13.12053543 19.50526154 -13.13804352 18.22805237 -13.15608215 16.91213989 C-13.15315659 15.72095551 -13.15023102 14.52977112 -13.1472168 13.30249023 C-13.15308304 12.25674835 -13.15894928 11.21100647 -13.16499329 10.13357544 C-12.54877816 6.52164681 -11.1917335 4.8941626 -8.67724609 2.2746582 C-5.26020139 -0.0033716 -4.0164726 0.01802973 0 0 Z " fill="#C5C4C5" transform="translate(560.67724609375,400.725341796875)"/>
<path d="M0 0 C1.1583284 -0.01921509 2.3166568 -0.03843018 3.51008606 -0.05822754 C5.38200874 -0.07097717 5.38200874 -0.07097717 7.29174805 -0.08398438 C8.57905319 -0.09538452 9.86635834 -0.10678467 11.19267273 -0.11853027 C13.91703869 -0.13951017 16.64128735 -0.15122119 19.36572266 -0.15820312 C22.84295687 -0.16915952 26.31861937 -0.21719508 29.79536152 -0.27414703 C33.12745813 -0.32054476 36.45934537 -0.32430793 39.79174805 -0.33398438 C41.03362381 -0.35867798 42.27549957 -0.38337158 43.55500793 -0.40881348 C53.23073782 -0.35908202 53.23073782 -0.35908202 57.5300293 2.48999023 C62.09742363 7.31455437 61.17712743 14.07840633 61.06518555 20.29492188 C61.06227878 21.6644206 61.06189753 23.0339268 61.06391907 24.40342712 C61.06071034 27.26608621 61.03384716 30.12720222 60.98876953 32.98950195 C60.93204463 36.6505492 60.92391651 40.30967799 60.93217754 43.97109318 C60.93498059 46.79631714 60.91734211 49.62111625 60.89304543 52.44622612 C60.87793234 54.44970491 60.87571065 56.45326758 60.873703 58.45680237 C60.84026543 60.28911659 60.84026543 60.28911659 60.80615234 62.15844727 C60.79392136 63.23067032 60.78169037 64.30289337 60.76908875 65.40760803 C60.11582154 69.01293104 58.75408414 70.70381496 56.2409668 73.32226562 C53.54429479 74.67060163 51.42124846 74.47179415 48.40185547 74.49926758 C46.56435982 74.51852043 46.56435982 74.51852043 44.68974304 74.53816223 C43.34614465 74.54632995 42.00254169 74.55377362 40.65893555 74.56054688 C39.98299158 74.5646224 39.30704762 74.56869793 38.6106205 74.57289696 C35.0322462 74.59375691 31.45391023 74.60805835 27.87548828 74.61743164 C24.18318255 74.6284904 20.49148044 74.66288323 16.79938793 74.70260334 C13.95716753 74.72877701 11.11509071 74.73712412 8.27276039 74.74071312 C6.91201009 74.74557798 5.55126616 74.75718934 4.19063377 74.77575111 C2.28332458 74.80015124 0.37572163 74.79675687 -1.53173828 74.79223633 C-2.61602615 74.79810257 -3.70031403 74.80396881 -4.81745911 74.81001282 C-8.48659534 74.20162736 -10.14191683 72.92111736 -12.7590332 70.32226562 C-13.8131255 67.15998874 -13.9047135 64.87543251 -13.93603516 61.55322266 C-13.95528801 59.77590256 -13.95528801 59.77590256 -13.97492981 57.962677 C-13.98231674 56.68141937 -13.98970367 55.40016174 -13.99731445 54.08007812 C-14.0053862 52.76441864 -14.01345795 51.44875916 -14.02177429 50.0932312 C-14.03678599 47.3074354 -14.04663181 44.52166496 -14.05419922 41.73583984 C-14.06526748 38.17246901 -14.09967813 34.60972199 -14.13937092 31.04657173 C-14.17184013 27.64109887 -14.17631545 24.23569383 -14.18481445 20.83007812 C-14.20232254 19.55286896 -14.21983063 18.27565979 -14.23786926 16.95974731 C-14.2349437 15.76856293 -14.23201813 14.57737854 -14.22900391 13.35009766 C-14.23487015 12.30435577 -14.24073639 11.25861389 -14.2467804 10.18118286 C-13.6262714 6.54408584 -12.33283717 4.92809822 -9.7590332 2.32226562 C-6.56581111 0.13885004 -3.81859509 0.05121803 0 0 Z " fill="#C5C4C5" transform="translate(450.759033203125,511.677734375)"/>
<path d="M0 0 C1.28543198 -0.00099701 2.57086395 -0.00199402 3.89524841 -0.00302124 C6.6063482 -0.00284256 9.31624891 0.01785308 12.02709961 0.05419922 C15.48959472 0.09962168 18.95034509 0.10064721 22.41305637 0.08716393 C25.73390076 0.07884871 29.05421551 0.10284312 32.375 0.125 C33.61262589 0.12317719 34.85025177 0.12135437 36.12538147 0.11947632 C46.88781699 0.29662997 46.88781699 0.29662997 51.62109375 4.7265625 C53.92326658 8.17982175 53.88238769 9.51538574 53.91162109 13.58740234 C53.9243808 14.79230316 53.9371405 15.99720398 53.95028687 17.23861694 C53.95251251 18.54174835 53.95473816 19.84487976 53.95703125 21.1875 C53.96345938 22.53887066 53.97018776 23.89023993 53.97720337 25.24160767 C53.9891775 28.07451604 53.99288412 30.90730248 53.99169922 33.74023438 C53.99149612 37.36418157 54.01878651 40.98734371 54.05324364 44.61110497 C54.07552148 47.40273606 54.0795365 50.19417856 54.07847977 52.98588943 C54.08197751 54.96952367 54.1036373 56.95309904 54.12557983 58.93661499 C54.11942657 60.14782013 54.11327332 61.35902527 54.10693359 62.60693359 C54.10978363 63.67044037 54.11263367 64.73394714 54.11557007 65.8296814 C53.49516868 69.46429236 52.19297799 71.1273894 49.62109375 73.7265625 C46.4332221 74.78918638 44.11125367 74.8724999 40.76025391 74.90356445 C39.55535309 74.91639969 38.35045227 74.92923492 37.10903931 74.94245911 C35.8059079 74.94984604 34.50277649 74.95723297 33.16015625 74.96484375 C32.49616192 74.96891928 31.83216759 74.9729948 31.14805222 74.97719383 C27.63451196 74.99803029 24.12101049 75.01234326 20.60742188 75.02172852 C16.98352161 75.03279712 13.36023467 75.06720798 9.73655128 75.10690022 C6.94494503 75.13307253 4.15348496 75.14142074 1.36176682 75.14500999 C-0.62189736 75.15223289 -2.60546155 75.17866644 -4.58895874 75.20539856 C-5.80016388 75.20247299 -7.01136902 75.19954742 -8.25927734 75.1965332 C-9.85453751 75.20533257 -9.85453751 75.20533257 -11.48202515 75.21430969 C-15.1204682 74.60170589 -16.77883301 73.30052035 -19.37890625 70.7265625 C-20.43532497 67.55730634 -20.54407919 65.21286799 -20.60351562 61.8815918 C-20.62603394 60.67991867 -20.64855225 59.47824554 -20.67175293 58.24015808 C-20.74270226 52.74943279 -20.80042104 47.25886912 -20.83886719 41.76782227 C-20.86114997 38.87008504 -20.90293054 35.97363439 -20.96191406 33.07641602 C-21.03311828 29.5714733 -21.06971343 26.06774159 -21.08198547 22.56211281 C-21.09739462 20.5843617 -21.14721871 18.60697505 -21.19763184 16.62980652 C-21.17528225 6.6007211 -21.17528225 6.6007211 -17.67016602 2.90795898 C-12.36004752 -0.61659433 -6.14181998 -0.091558 0 0 Z " fill="#C4C4C4" transform="translate(346.37890625,511.2734375)"/>
<path d="M0 0 C1.1583284 -0.01921509 2.3166568 -0.03843018 3.51008606 -0.05822754 C5.38200874 -0.07097717 5.38200874 -0.07097717 7.29174805 -0.08398438 C8.57905319 -0.09538452 9.86635834 -0.10678467 11.19267273 -0.11853027 C13.91703869 -0.13951017 16.64128735 -0.15122119 19.36572266 -0.15820312 C22.84295687 -0.16915952 26.31861937 -0.21719508 29.79536152 -0.27414703 C33.12745813 -0.32054476 36.45934537 -0.32430793 39.79174805 -0.33398438 C41.03362381 -0.35867798 42.27549957 -0.38337158 43.55500793 -0.40881348 C53.23027 -0.35908443 53.23027 -0.35908443 57.53222656 2.50366211 C62.0617872 7.28746491 61.15799799 13.90880916 61.0300293 20.07617188 C61.02457972 21.4232453 61.02180544 22.77033195 61.02157593 24.11741638 C61.0138678 26.93302751 60.98301141 29.7470688 60.93383789 32.56225586 C60.87151385 36.16258941 60.85299517 39.76142308 60.85004616 43.36224461 C60.84533551 46.14111371 60.82452276 48.91966693 60.79816818 51.69840813 C60.78032381 53.66865421 60.77029951 55.63896613 60.76040649 57.60926819 C60.73803925 58.81079025 60.715672 60.01231232 60.69262695 61.25024414 C60.67817535 62.3047023 60.66372375 63.35916046 60.64883423 64.4455719 C60.17460475 67.79031788 59.29127345 69.64829783 57.2409668 72.32226562 C54.04415914 74.60140511 51.12305693 74.58994161 47.26660156 74.62866211 C46.06177628 74.64464951 44.85695099 74.6606369 43.61561584 74.67710876 C42.31764572 74.68247147 41.0196756 74.68783417 39.68237305 74.69335938 C38.33243207 74.70233066 36.98249209 74.7114526 35.6325531 74.72071838 C32.80562935 74.73718808 29.97882376 74.74490498 27.15185547 74.74780273 C23.53563094 74.75319007 19.92052162 74.79089053 16.30461216 74.8365469 C13.51726759 74.86633737 10.73019125 74.87352666 7.94270134 74.87452888 C5.96344497 74.88076153 3.9843057 74.91022038 2.00526428 74.94004822 C-7.97850333 74.88981663 -7.97850333 74.88981663 -11.05224609 71.84985352 C-11.61548584 71.01574951 -12.17872559 70.18164551 -12.7590332 69.32226562 C-13.0890332 68.99226563 -13.4190332 68.66226563 -13.7590332 68.32226562 C-13.87391634 66.4469249 -13.918691 64.5672528 -13.93603516 62.68847656 C-13.94887039 61.48342468 -13.96170563 60.2783728 -13.97492981 59.0368042 C-13.98231674 57.72335022 -13.98970367 56.40989624 -13.99731445 55.05664062 C-14.00138998 54.39081215 -14.00546551 53.72498367 -14.00966454 53.03897858 C-14.03054698 49.51247973 -14.04483719 45.98602001 -14.05419922 42.45947266 C-14.0652472 38.81982063 -14.09962101 35.18078281 -14.13937092 31.5413475 C-14.16555064 28.74115888 -14.17389236 25.94111597 -14.1774807 23.14081573 C-14.1847087 21.14829298 -14.2111468 19.15586985 -14.23786926 17.16351318 C-14.2349437 15.94585266 -14.23201813 14.72819214 -14.22900391 13.47363281 C-14.23487015 12.40409363 -14.24073639 11.33455444 -14.2467804 10.23260498 C-13.63122934 6.55967259 -12.36151805 4.94808737 -9.7590332 2.32226562 C-6.56581111 0.13885004 -3.81859509 0.05121803 0 0 Z " fill="#C5C5C5" transform="translate(450.759033203125,289.677734375)"/>
<path d="M0 0 C1.14153534 -0.0127597 2.28307068 -0.02551941 3.459198 -0.03866577 C4.68840973 -0.04089142 5.91762146 -0.04311707 7.18408203 -0.04541016 C8.45156281 -0.05206696 9.71904358 -0.05872375 11.02493286 -0.06558228 C13.70654339 -0.07570934 16.3877485 -0.0812644 19.06933594 -0.08007812 C22.49475714 -0.07987505 25.91934757 -0.10716859 29.34457207 -0.14162254 C32.62437716 -0.16929416 35.90417608 -0.16804222 39.18408203 -0.17041016 C41.02182693 -0.19196671 41.02182693 -0.19196671 42.896698 -0.21395874 C50.90881594 -0.17100793 54.62326858 0.59690139 60.31689453 6.29052734 C60.57759094 8.81318665 60.57759094 8.81318665 60.59155273 12.0378418 C60.60108475 13.24281815 60.61061676 14.44779449 60.62043762 15.68928528 C60.61952621 16.99757797 60.61861481 18.30587067 60.61767578 19.65380859 C60.6215624 21.0066084 60.62589701 22.35940698 60.63066101 23.71220398 C60.63813017 26.55109608 60.63782788 29.38986386 60.63256836 32.22875977 C60.62678572 35.86045792 60.64367142 39.49164408 60.66691303 43.12325764 C60.68167613 45.91917378 60.68251838 48.71496754 60.67940331 51.51091576 C60.68016435 53.49894328 60.69402444 55.48695185 60.70808411 57.47492981 C60.70185532 58.68936264 60.69562653 59.90379547 60.68920898 61.1550293 C60.68983841 62.22155228 60.69046783 63.28807526 60.69111633 64.38691711 C60.25871671 67.74193265 59.32393408 69.58727047 57.31689453 72.29052734 C53.84754141 74.60342943 52.46142958 74.55654791 48.36425781 74.59692383 C46.52687546 74.62090492 46.52687546 74.62090492 44.65237427 74.64537048 C43.31398942 74.65174728 41.97559957 74.65713999 40.63720703 74.66162109 C39.26341656 74.67058926 37.88962709 74.67971114 36.51583862 74.6889801 C33.63586047 74.70546759 30.75599853 74.71316968 27.87597656 74.71606445 C24.19134994 74.72144688 20.50782042 74.75911958 16.82350349 74.80480862 C13.9855453 74.8346007 11.14785056 74.84178845 8.3097496 74.8427906 C6.95178072 74.8469891 5.59381079 74.85940892 4.23599625 74.88030815 C-7.72147259 75.04969776 -7.72147259 75.04969776 -10.9921875 71.88061523 C-13.46923838 68.08635697 -13.81757191 66.15624114 -13.86010742 61.63500977 C-13.87936028 59.85757637 -13.87936028 59.85757637 -13.89900208 58.04423523 C-13.90638901 56.75781631 -13.91377594 55.4713974 -13.92138672 54.14599609 C-13.92945847 52.82892166 -13.93753021 51.51184723 -13.94584656 50.15486145 C-13.96087407 47.36308927 -13.9707116 44.57134255 -13.97827148 41.77954102 C-13.98932923 38.2082943 -14.02372103 34.63767185 -14.06344318 31.06664562 C-14.09591925 27.65562079 -14.10038915 24.2446636 -14.10888672 20.83349609 C-14.12639481 19.55314987 -14.14390289 18.27280365 -14.16194153 16.95365906 C-14.15901596 15.75924698 -14.15609039 14.5648349 -14.15307617 13.33422852 C-14.15894241 12.28547043 -14.16480865 11.23671234 -14.17085266 10.15617371 C-13.5510018 6.51438264 -12.26065063 4.89899646 -9.68310547 2.29052734 C-6.50241952 0.11780056 -3.80291042 0.02889407 0 0 Z " fill="#C5C5C5" transform="translate(561.68310546875,511.70947265625)"/>
<path d="M0 0 C1.1583284 -0.01921509 2.3166568 -0.03843018 3.51008606 -0.05822754 C5.38200874 -0.07097717 5.38200874 -0.07097717 7.29174805 -0.08398438 C8.57905319 -0.09538452 9.86635834 -0.10678467 11.19267273 -0.11853027 C13.91703869 -0.13951017 16.64128735 -0.15122119 19.36572266 -0.15820312 C22.84295687 -0.16915952 26.31861937 -0.21719508 29.79536152 -0.27414703 C33.12745813 -0.32054476 36.45934537 -0.32430793 39.79174805 -0.33398438 C41.03362381 -0.35867798 42.27549957 -0.38337158 43.55500793 -0.40881348 C53.23027 -0.35908443 53.23027 -0.35908443 57.53222656 2.50366211 C62.0617872 7.28746491 61.15799799 13.90880916 61.0300293 20.07617188 C61.02457972 21.4232453 61.02180544 22.77033195 61.02157593 24.11741638 C61.0138678 26.93302751 60.98301141 29.7470688 60.93383789 32.56225586 C60.87151385 36.16258941 60.85299517 39.76142308 60.85004616 43.36224461 C60.84533551 46.14111371 60.82452276 48.91966693 60.79816818 51.69840813 C60.78032381 53.66865421 60.77029951 55.63896613 60.76040649 57.60926819 C60.73803925 58.81079025 60.715672 60.01231232 60.69262695 61.25024414 C60.67817535 62.3047023 60.66372375 63.35916046 60.64883423 64.4455719 C60.17827647 67.76442122 59.22442678 69.63804099 57.2409668 72.32226562 C53.78357989 74.62719023 52.45656261 74.57923717 48.38012695 74.59692383 C46.57277573 74.61122185 46.57277573 74.61122185 44.72891235 74.62580872 C43.42578094 74.62489731 42.12264954 74.6239859 40.7800293 74.62304688 C39.42865874 74.62693475 38.07728939 74.63126962 36.72592163 74.6360321 C33.89300578 74.64349353 31.06021455 74.64320412 28.22729492 74.63793945 C24.60347244 74.63215141 20.98016217 74.64905941 17.35642433 74.67228413 C14.56479935 74.68704513 11.77329696 74.68788987 8.98163986 74.6847744 C6.99804178 74.68553517 5.01446268 74.69939299 3.03091431 74.7134552 C1.2141066 74.70411201 1.2141066 74.70411201 -0.6394043 74.69458008 C-1.70291107 74.6952095 -2.76641785 74.69583893 -3.8621521 74.69648743 C-7.26787605 74.25653283 -9.0774188 73.4618314 -11.7590332 71.32226562 C-13.78209792 67.69846461 -14.01894442 64.52206651 -14.04956055 60.41796875 C-14.06232025 59.2532605 -14.07507996 58.08855225 -14.08822632 56.8885498 C-14.09045197 55.63948853 -14.09267761 54.39042725 -14.0949707 53.10351562 C-14.1016275 51.81288208 -14.1082843 50.52224854 -14.11514282 49.19250488 C-14.12709018 46.46570488 -14.1308261 43.73903135 -14.12963867 41.01220703 C-14.12943519 37.52506835 -14.15677702 34.03874198 -14.19118309 30.55179596 C-14.21881154 27.21485695 -14.21760116 23.87806752 -14.2199707 20.54101562 C-14.23434174 19.29195435 -14.24871277 18.04289307 -14.26351929 16.75598145 C-14.25736603 15.59127319 -14.25121277 14.42656494 -14.24487305 13.2265625 C-14.24772308 12.20461792 -14.25057312 11.18267334 -14.25350952 10.12976074 C-13.61992963 6.5324753 -12.30212616 4.90700162 -9.7590332 2.32226562 C-6.56581111 0.13885004 -3.81859509 0.05121803 0 0 Z " fill="#C5C5C5" transform="translate(561.759033203125,289.677734375)"/>
<path d="M0 0 C1.39095896 -0.00150366 2.78191704 -0.00493674 4.17286682 -0.01020813 C7.0841805 -0.01453412 9.99438443 0.00225122 12.90551758 0.03442383 C16.62606427 0.07417065 20.3445265 0.06491698 24.06513882 0.04018879 C26.93672075 0.02596247 29.80782099 0.03612655 32.67936897 0.0537014 C34.05040395 0.05952725 35.42148874 0.05828432 36.79250908 0.0496769 C48.76255254 -0.00044313 48.76255254 -0.00044313 52.78515625 2.4519043 C56.2787598 7.81453828 55.73718525 13.15843177 55.6328125 19.41796875 C55.62923232 20.76647545 55.62787863 22.11498974 55.62864685 23.46350098 C55.62396372 26.28490288 55.59919203 29.10515653 55.55883789 31.92626953 C55.50786648 35.53445549 55.49639543 39.14138171 55.49867344 42.74988556 C55.49785587 45.53301929 55.4813734 48.31588006 55.45966911 51.09892273 C55.44554048 53.07360522 55.44029534 55.04834484 55.43519592 57.02307129 C55.40648659 58.83019592 55.40648659 58.83019592 55.37719727 60.67382812 C55.36576187 61.73130249 55.35432648 62.78877686 55.34254456 63.8782959 C54.87611485 67.23103993 53.99703603 69.08353555 51.94140625 71.76171875 C48.74201913 74.04444644 45.82706078 74.02447656 41.96704102 74.05224609 C40.76221573 74.0650058 39.55739044 74.0777655 38.3160553 74.09091187 C36.36910011 74.09425034 36.36910011 74.09425034 34.3828125 74.09765625 C33.03287109 74.10408646 31.68293106 74.11081499 30.33299255 74.11782837 C27.50606048 74.12979007 24.67925051 74.13351028 21.85229492 74.13232422 C18.23622344 74.13212093 14.62093702 74.15943665 11.00505161 74.19386864 C8.21771167 74.21614331 5.43056062 74.22016163 2.64314079 74.21910477 C0.66393592 74.22260127 -1.31520999 74.24425831 -3.29429626 74.26620483 C-4.50227371 74.26005157 -5.71025116 74.25389832 -6.95483398 74.24755859 C-8.54556984 74.25183365 -8.54556984 74.25183365 -10.16844177 74.25619507 C-13.79842385 73.63514116 -15.46200865 72.32987376 -18.05859375 69.76171875 C-19.10959202 66.60872393 -19.21055117 64.32077439 -19.25146484 61.00854492 C-19.27555923 59.23606636 -19.27555923 59.23606636 -19.30014038 57.42778015 C-19.34459707 52.02859026 -19.38608411 46.62954507 -19.40869141 41.23022461 C-19.42202672 38.38126488 -19.44987411 35.53302212 -19.49072266 32.68432617 C-19.54958931 28.57849078 -19.56735832 24.47342294 -19.58203125 20.3671875 C-19.60470062 19.09513962 -19.62737 17.82309174 -19.65072632 16.51249695 C-19.62709948 6.63818964 -19.62709948 6.63818964 -17.40454102 2.95898438 C-12.92882272 -1.20463844 -5.69787166 -0.07098111 0 0 Z " fill="#C5C4C5" transform="translate(345.05859375,290.23828125)"/>
</svg>
